<?xml version="1.0" encoding="utf-8"?>
<svg version="1.1" id="Layer_1" xmlns="http://www.w3.org/2000/svg" xmlns:xlink="http://www.w3.org/1999/xlink" x="0px" y="0px" viewBox="0 0 328 34" style="enable-background:new 0 0 328 34;" xml:space="preserve" preserveAspectRatio="none">
<style type="text/css">
	.st0{fill:url(#SVGID_1_);}
	.st1{fill:url(#SVGID_2_);}
	.st2{fill:url(#SVGID_3_);}
	.st3{fill:url(#SVGID_4_);}
	.st4{fill:url(#SVGID_5_);}
	.st5{fill:url(#SVGID_6_);}
	.st6{fill:url(#SVGID_7_);}
	.st7{fill:url(#SVGID_8_);}
	.st8{fill:url(#SVGID_9_);}
</style>
<linearGradient id="SVGID_1_" gradientUnits="userSpaceOnUse" x1="162.7161" y1="7.8593" x2="162.7161" y2="28.6063">
	<stop  offset="0" style="stop-color:#C0E568"/>
	<stop  offset="0.144" style="stop-color:#9FCA4B"/>
	<stop  offset="0.4601" style="stop-color:#4B8401"/>
	<stop  offset="0.4663" style="stop-color:#498300"/>
	<stop  offset="1" style="stop-color:#0D2F07"/>
</linearGradient>
<path class="st0" d="M51.3,8.8c-3.9,10.6-0.9,19.8-0.9,19.8h1.8C48.5,19.9,51.3,8.8,51.3,8.8z M45.8,28.6h2.3
	c-3.8-9.8,0-20.6,0-20.6C43.3,15.4,45.8,28.6,45.8,28.6z M24.5,28.3c0.4-1.9,2.3-12-2.9-17.2c0.9-0.7,2-1.3,3.1-1.8
	c0,0-1.4,0.4-3.3,1.6c-0.6-0.6-1.4-1.2-2.2-1.6c0,0,0.7,0.7,1.5,2.1c-3.6,2.5-8.5,7.6-9.2,17.3h3.3c0,0-1.1-11,6.1-17
	c1.7,2.9,3.5,8.7,0.2,17h5.6c0,0,4-9-1.2-19.2C25.5,9.4,29.2,19.9,24.5,28.3z M40.9,9.6c-0.3,0.2-1.2,1.1-3.2,3.7
	c0,0-4.7,7.5,0.8,15.3h5.3c0,0,3.5-12.8-3.3-20C40.5,8.6,40.7,9,40.9,9.6z M40.8,28.1c-1.3-2.1-5.5-9.8-0.9-14.9c0,0,0,0,1.2-3.4
	C42.2,12.8,44.7,20.6,40.8,28.1z M39.1,8.4c0,0-4.4,2-7.2,9.1c-0.3-3.4-1.3-6.9-3.4-9.6c0,0,4.5,10.9,0,20.7h3.5
	C32.1,28.6,31,13.4,39.1,8.4z M126.4,9c1,3.8,1,3.8,1,3.8c4,6.2-1,15.9-1,15.9h1.9c4.1-8,0.6-15.7,0.6-15.7
	C126.8,9.1,126.4,9,126.4,9z M137,8.8c-3.9,10.6-0.9,19.8-0.9,19.8h1.8C134.2,19.9,137,8.8,137,8.8z M131.6,28.6h2.3
	c-3.8-9.8,0-20.6,0-20.6C129.1,15.4,131.6,28.6,131.6,28.6z M110,9c1,3.8,1,3.8,1,3.8c2.3,3.6,1.6,8.4,0.6,11.8
	c-1.6-13-7.8-16.2-7.8-16.2c7,5,6.1,20.3,6.1,20.3h2c4.1-8,0.6-15.7,0.6-15.7C110.5,9.1,110,9,110,9z M90.4,9.9
	c0.6-0.6,1.2-1.1,1.9-1.5c0,0-0.8,0.4-1.9,1.3C89.8,9,89.6,9,89.6,9c0.1,0.4,0.2,0.8,0.3,1.1c-1.6,1.4-3.6,3.9-5.1,8
	c-0.2-3.5-1-7.2-2.9-10c0,0,3.8,10.8,0,20.6h3.2c0,0-0.8-12.2,4.8-18.3c0.6,2.4,0.6,2.4,0.6,2.4c4,6.2-1,15.9-1,15.9h1.9
	c4.1-8,0.6-15.7,0.6-15.7C91.3,11.4,90.7,10.5,90.4,9.9z M104.4,8.8c-3.9,10.6-0.9,19.8-0.9,19.8h1.8
	C101.6,19.9,104.4,8.8,104.4,8.8z M98.9,28.6h2.3c-3.8-9.8,0-20.6,0-20.6C96.4,15.4,98.9,28.6,98.9,28.6z M73.3,9c1,3.8,1,3.8,1,3.8
	c4,6.2-1,15.9-1,15.9h1.9c4.1-8,0.6-15.7,0.6-15.7C73.7,9.1,73.3,9,73.3,9z M79.9,8.8C76,19.4,79,28.6,79,28.6h1.8
	C77.1,19.9,79.9,8.8,79.9,8.8z M57.2,9c0.8,3.8,0.8,3.8,0.8,3.8c3.5,6.2-0.8,15.9-0.8,15.9h1.7c3.5-8,0.5-15.7,0.5-15.7
	C57.6,9.1,57.2,9,57.2,9z M67.6,8.8c-3.9,10.6-0.9,19.8-0.9,19.8h1.8C64.8,19.9,67.6,8.8,67.6,8.8z M62.3,28.6h2
	C61,18.8,64.3,8,64.3,8C60.1,15.4,62.3,28.6,62.3,28.6z M53.5,28.6h2c0,0,2.2-13.2-2-20.6C53.5,8,56.9,18.8,53.5,28.6z M124.9,8.4
	c0,0-0.6,0.3-1.4,0.9c-0.2-0.4-0.5-0.9-0.7-1.3c0,0,0.2,0.5,0.4,1.5c-2.1,1.7-5.7,5.7-7.2,13.9c-1.2-7.4,0.6-14.6,0.6-14.6
	c-3.2,8.6-1.8,16.4-1.1,18.9c0,0.3,0,0.6-0.1,0.9h2.4c0,0-0.9-13,5.4-18.9c0.9,3.4,2.4,11.4-0.5,18.9h2.3c0,0,2.2-11.7-1.5-19.2
	C123.9,9,124.4,8.7,124.9,8.4z M93.5,28.6h3.3c0,0,3.5-12.8-3.3-20C93.5,8.6,99,19.1,93.5,28.6z M70,28.6h3.3
	c-5.4-9.7,0-20.3,0-20.3C66.4,15.6,70,28.6,70,28.6z M150.9,9c1,3.8,1,3.8,1,3.8c4,6.2-1,15.9-1,15.9h1.9c4.1-8,0.6-15.7,0.6-15.7
	C151.3,9.1,150.9,9,150.9,9z M165.6,8.8c-3.9,10.6-0.9,19.8-0.9,19.8h1.8C162.8,19.9,165.6,8.8,165.6,8.8z M156.1,28.6h2.3
	c-3.8-9.8,0-20.6,0-20.6C153.6,15.4,156.1,28.6,156.1,28.6z M167,28.6h3.3c0,0,3.5-13.1-3.3-20.4C167,8.2,172.5,18.9,167,28.6z
	 M149.4,8.4c0,0-0.6,0.3-1.4,0.9c-0.2-0.4-0.5-0.9-0.7-1.3c0,0,0.2,0.5,0.4,1.5c-1.5,1.2-3.6,3.5-5.3,7.4c-0.5-3.1-1.6-6.3-3.9-8.8
	c0,0,5.4,10.7,0,20.4h3.8c0,0-0.1-1,0-2.5c0.2-1.3,0.4-3.1,0.4-5c0.6-3.9,2-8.6,5.1-11.5c0.9,3.4,2.4,11.4-0.5,18.9h2.3
	c0,0,2.2-11.7-1.5-19.2C148.4,9,148.9,8.7,149.4,8.4z M306.9,9.3c-3.6,1.9-5.1,5.3-5.7,8.8c-0.2-3.5-1-7.2-2.9-10
	c0,0,3.8,10.8,0,20.6h2.3c0,0,0.2-1.3,0.4-3.3c0.2,2,0.5,3.3,0.5,3.3h3.3C300,15.9,306.9,9.3,306.9,9.3z M307,28.6h2.8
	c-4.5-9.9,0-20.7,0-20.7C304,15.3,307,28.6,307,28.6z M296.5,13.4c-2-2.6-2.9-3.5-3.2-3.7c0.3-0.7,0.5-1.1,0.5-1.1
	c-2.1,2.2-3.2,5-3.8,7.7c-2.2-3-4.7-4.8-6.5-5.9c-0.2-0.5-0.3-1.1-0.5-1.6c0,0,0.1,0.6,0.3,1.5c-1.4-0.8-2.3-1-2.3-1
	c0.9,0.4,1.6,0.8,2.3,1.2c0.5,2.6,1.1,7.7,0.2,12.9c-1.5-8.3-5.2-12.3-7.3-14c0.2-0.9,0.4-1.4,0.4-1.4c-0.2,0.4-0.4,0.8-0.6,1.2
	c-0.8-0.6-1.3-0.8-1.3-0.8c0.5,0.3,0.9,0.6,1.3,0.9c-3.3,7.5-1.4,19.3-1.4,19.3h2c-2.6-7.6-1.2-15.7-0.4-19c6.4,5.9,5.5,19,5.5,19
	h2.4c0-0.3,0-0.6-0.1-0.9c0.6-2.4,1.8-9.2-0.5-17c3.2,2.2,5,5.2,6.1,8.2c-0.4,5.2,0.8,9.7,0.8,9.7h5.3
	C301.1,20.8,296.5,13.4,296.5,13.4z M294,27.1c-0.4-3.5-1.4-6.3-2.7-8.6c0.1-3.8,1.2-7,1.9-8.7c1.2,3.4,1.2,3.4,1.2,3.4
	C298.4,17.7,295.6,24.2,294,27.1z M312.8,9.4c-5.2,10.3-1.2,19.2-1.2,19.2h2.4C309,20.2,312.8,9.4,312.8,9.4z M207.8,9
	c0,0-0.4,0.2-2.5,3.9c0,0-3.5,7.7,0.6,15.7h1.9c0,0-4.9-9.7-1-15.9C206.9,12.7,206.9,12.7,207.8,9z M192.2,28.6h1.8
	c0,0,3-9.2-0.9-19.8C193.1,8.8,195.9,19.9,192.2,28.6z M201.8,22.9C199.5,11.4,193,8.4,193,8.4c8.1,5,7.1,20.2,7.1,20.2h2.6
	c0,0,2.5-13.2-2.3-20.6C200.3,8,202.8,15,201.8,22.9z M209.1,28.6h2.3c-3.8-9.8,0-20.6,0-20.6C206.6,15.4,209.1,28.6,209.1,28.6z
	 M244.6,9c0,0-0.4,0.2-2.5,3.9c0,0-3.5,7.7,0.6,15.7h1.9c0,0-4.9-9.7-1-15.9C243.6,12.7,243.6,12.7,244.6,9z M229.8,8.8
	c0,0,1.8,7.2,0.6,14.6c-1.3-7.4-4.4-11.4-6.5-13.3c0.1-0.3,0.2-0.7,0.3-1.1c0,0-0.1,0.1-0.6,0.8c-0.8-0.6-1.4-1-1.7-1.2
	c0.1-0.1,0.2-0.2,0.3-0.3c0,0-0.1,0.1-0.4,0.3c-0.1-0.1-0.2-0.1-0.2-0.1c0.1,0,0.1,0.1,0.2,0.1c-1.1,0.8-4.4,3.7-6.3,10.6
	c-0.1-3.1-0.6-6.6-2-10.4c0,0,2.8,11.1-0.9,19.8h3.5c0,0-0.8-14.7,5.7-20c0.6,0.4,1.1,0.8,1.6,1.3c-0.4,0.6-0.9,1.5-1.8,3
	c0,0-3.5,7.7,0.6,15.7h1.9c0,0-4.9-9.7-1-15.9c0,0,0,0,0.6-2.4c5.6,6.1,4.8,18.3,4.8,18.3h2.4c0-0.3,0-0.6-0.1-0.9
	C231.6,25.2,233,17.4,229.8,8.8z M237.1,28.6h2.3c0,0,2.5-13.2-2.3-20.6C237.1,8,240.9,18.8,237.1,28.6z M245.9,28.6h2.3
	c-3.8-9.8,0-20.6,0-20.6C243.4,15.4,245.9,28.6,245.9,28.6z M256.8,9c0,0-0.4,0.2-2.5,3.9c0,0-3.5,7.7,0.6,15.7h1.9
	c0,0-4.9-9.7-1-15.9C255.9,12.7,255.9,12.7,256.8,9z M249.4,28.6h1.8c0,0,3-9.2-0.9-19.8C250.3,8.8,253.1,19.9,249.4,28.6z M272.9,9
	c0,0-0.4,0.2-2.2,3.9c0,0-3,7.7,0.5,15.7h1.7c0,0-4.3-9.7-0.8-15.9C272.1,12.7,272.1,12.7,272.9,9z M261.6,28.6h1.8
	c0,0,3-9.2-0.9-19.8C262.5,8.8,265.3,19.9,261.6,28.6z M265.8,28.6h2c0,0,2.2-13.2-2-20.6C265.8,8,269.2,18.8,265.8,28.6z
	 M188.4,28.6h3.3c-5.4-9.7,0-20.4,0-20.4C184.8,15.5,188.4,28.6,188.4,28.6z M233.3,28.6h3.3c-5.4-9.5,0-20,0-20
	C229.7,15.8,233.3,28.6,233.3,28.6z M256.9,28.6h3.3c0,0,3.5-13-3.3-20.3C256.9,8.3,262.3,18.9,256.9,28.6z M183.3,9
	c0,0-0.4,0.2-2.5,3.9c0,0-3.5,7.7,0.6,15.7h1.9c0,0-4.9-9.7-1-15.9C182.4,12.7,182.4,12.7,183.3,9z M177.3,22.9
	c-2.2-11.5-8.8-14.5-8.8-14.5c8.1,5,7.1,20.2,7.1,20.2h2.6c0,0,2.5-13.2-2.3-20.6C175.8,8,178.3,15,177.3,22.9z M184.6,28.6h2.3
	c-3.8-9.8,0-20.6,0-20.6C182.2,15.4,184.6,28.6,184.6,28.6z M159.8,28.6h3.3c-5.4-9.7,0-20.4,0-20.4
	C156.2,15.5,159.8,28.6,159.8,28.6z"/>
<linearGradient id="SVGID_2_" gradientUnits="userSpaceOnUse" x1="164" y1="3.124712e-02" x2="164" y2="28.6063">
	<stop  offset="0" style="stop-color:#C0E568"/>
	<stop  offset="0.144" style="stop-color:#9FCA4B"/>
	<stop  offset="0.4601" style="stop-color:#4B8401"/>
	<stop  offset="0.4663" style="stop-color:#498300"/>
	<stop  offset="1" style="stop-color:#0D2F07"/>
</linearGradient>
<path class="st1" d="M43.9,10.8l3.6-3.5l-3.7,1.9c0,0-4.4,5.6,0.1,19.3h3.6C47.5,28.6,43.3,25.2,43.9,10.8z M43,6.8
	c0,0-4.4,6.2-3,21.8h3C43,28.6,38,16.4,43,6.8z M19.2,28.6H22c0,0,1.9-14.3-1.4-22C20.6,6.7,21.7,20.9,19.2,28.6z M15.6,8.9
	c2.3,2.2,6.5,8.2,0.6,19.7h2.2C18.3,28.6,24.7,16.8,15.6,8.9z M15.6,8.9c-0.7-0.7-1.2-1-1.2-1C14.8,8.2,15.2,8.5,15.6,8.9z
	 M29.5,28.6h2.6c0,0,7.6-12.1-3.3-20.2C31.6,10.7,36.6,16.8,29.5,28.6z M38,21.9c-1.7-8.9-5.4-12.6-7-13.8c0.3,0,0.6,0.1,0.9,0.1
	c0,0-0.4-0.1-1.1-0.3c-0.3-0.3-0.5-0.4-0.5-0.4c0.1,0.1,0.3,0.2,0.4,0.3c-0.6-0.1-1.5-0.1-2.4,0c-0.5-0.4-0.9-0.6-0.9-0.6
	C27.7,7.6,28,7.8,28.3,8c-1.4,0.3-2.8,1-3.8,2.9c-0.5-1.4-1-2.7-1.8-3.9c0,0,0.7,2.1,1.3,5.2c-0.7,2.3-0.8,5.7,0.2,10.7
	c-0.3,1.9-0.7,3.8-1.5,5.6h2.5c0,0,0.1-0.3,0.1-0.9c0.1,0.3,0.2,0.6,0.2,0.9h2.8c0,0-1.4-3.3-2.5-7.3c0-2.7-0.1-5.9-0.9-8.9
	c0.4-2.2,1.4-3.8,3.6-4.2c0.1,0.1,0.2,0.2,0.3,0.2c-0.1-0.1-0.2-0.2-0.3-0.2C29.2,8,30,8,30.9,8.1c5.8,4.9,5.8,17,5.8,19.9
	c-0.1,0.2-0.1,0.4-0.2,0.6h2.4c0,0,2.5-13.3-2.4-20.7C36.4,7.9,38.7,14.4,38,21.9z M135.3,28.6h3c0,0-5-14.7,0-26.3
	C138.4,2.3,134,9.8,135.3,28.6z M131.6,3.5c0.3-0.4,0.7-0.8,1.1-1.3C132.7,2.3,132.2,2.7,131.6,3.5z M117.2,9.4c0,0,0,0,0.9-4.6
	c0,0-0.4,0.2-2.4,4.8c0,0-3.3,9.3,0.5,19h1.8C118.1,28.6,113.5,16.8,117.2,9.4z M107.7,5.6c0.3-0.4,0.7-0.8,1.1-1.2
	C108.8,4.4,108.3,4.8,107.7,5.6z M100.9,4.4c0,0-4.4,6.9-3,24.2h3C100.9,28.6,95.9,15.1,100.9,4.4z M90.7,5.6
	c0.3-0.4,0.7-0.8,1.1-1.2C91.8,4.4,91.3,4.8,90.7,5.6z M79.7,10.4c0,0,0,0,0.9-4.3c0,0-0.4,0.2-2.4,4.5c0,0-3.3,8.8,0.5,18.1h1.8
	C80.6,28.6,76,17.4,79.7,10.4z M70.2,6.7c0.3-0.4,0.7-0.7,1.1-1.1C71.3,5.7,70.8,6,70.2,6.7z M52.6,16.7c-0.2-3-0.6-6.3-1.6-9.8
	c0,0,2.3,12.1-0.7,21.7h1.4c0,0,0.7-2.9,0.9-7.3c0.4,4.2,1.6,7.3,1.6,7.3h1.7c-4.6-12.8-1.3-19.4,0.4-21.9
	C53.9,9.8,52.9,13.3,52.6,16.7z M56.4,6.7c0.3-0.4,0.6-0.7,1-1.1C57.3,5.7,56.9,6,56.4,6.7z M49.7,7.1c0,0-0.4,0.2-2.1,4.3
	c0,0-2.9,8.4,0.5,17.2h1.6c0,0-4.1-10.6-0.8-17.4C48.9,11.2,48.9,11.2,49.7,7.1z M127.7,11.7c-1.8-4.7-3.8-7-4.8-7.9
	c0-0.1-0.1-0.3-0.1-0.4l0.4-0.4l-0.4,0.3c-0.1-0.2-0.1-0.5-0.2-0.7c0,0,0,0.3,0.1,0.8l-0.3,0.2c-0.1-0.1-0.2-0.1-0.2-0.1
	c0,0,0.1,0.1,0.1,0.1l-2.9,1.9c0,0-4.4,6.8,0.1,23.3h3.9c0,0,2.6-11.3-0.5-24.7c2.3,2.4,3.6,6,4.5,9.8c-0.7,5.6,0.5,10.9,1.2,13.4
	c0,0.9,0,1.4,0,1.4h2.4c-0.1-0.4-0.3-0.8-0.4-1.2c-0.3-5.9-1.2-10.4-2.3-13.8c0.2-5.3,2-8.5,3.2-10.1
	C129.5,6.1,128.4,8.9,127.7,11.7z M122.7,3.5c0,0.1,0,0.2,0,0.2c0,0-0.1-0.1-0.1-0.1L122.7,3.5z M122.2,27c-1.2-2.4-3-8.1-2.6-19.9
	l3-3.6c0.1,0.1,0.1,0.1,0.2,0.2C123.3,7.4,124.5,17.9,122.2,27z M112.5,18.8c-0.4-4.4-0.1-9.7,2.1-14.4c0,0-2.1,3.3-3,11
	c-1.5-4.6-3.4-7.3-4.7-8.7c0.3-0.5,0.6-0.9,0.8-1.2c-0.3,0.4-0.6,0.8-0.9,1.1c-0.9-1-1.5-1.3-1.5-1.3c0.5,0.4,1,0.9,1.5,1.4
	c-5.9,8.2-2.4,19.2-1.6,21.4c-1-1.3-3.7-6.2-3.3-19.3l3.6-3.9l-3.7,2.1c0,0-4.4,6.2,0,21.4h5.4c-4.5-11.6-2.4-18.4-0.4-21.7
	c2.8,3.4,4,8.7,4.5,13.3c-0.1,2.5,0,5.3,0.2,8.4h3c0,0-0.6-1.6-1.1-4C113.2,22.4,112.9,20.5,112.5,18.8z M131.8,28.6h2.4
	c0,0,2.5-14.7-2.4-23C131.8,5.6,135.7,17.7,131.8,28.6z M75,19.3c-0.4-4.2-0.1-9.2,2.1-13.6c0,0-2.1,3.1-3,10.5
	c-1.5-4.4-3.4-6.9-4.7-8.2c0.3-0.5,0.6-0.8,0.8-1.1c-0.3,0.4-0.6,0.7-0.9,1.1c-0.9-0.9-1.5-1.3-1.5-1.3c0.5,0.4,1,0.9,1.5,1.4
	c-5.9,7.8-2.4,18.2-1.6,20.3c-0.5-0.6-1.3-2-2.1-4.6c-0.2-1.8-0.5-3.4-0.9-4.8c-0.3-2.4-0.4-5.3-0.3-8.9L68,6.3l-3.7,2
	c0,0-1.1,1.5-1.6,4.8c-1.2-2.6-2.6-4.3-3.6-5.3c0.3-0.7,0.6-1.5,0.9-2.2c0,0-0.4,0.7-1,2.1c-0.9-0.8-1.5-1.2-1.5-1.2
	c0.5,0.4,1,0.8,1.4,1.3c-1.2,3.1-2.9,9.7-2,20.7h3c0,0-4.3-10.9-1-20.6c1.6,1.9,2.7,4.3,3.4,6.9c-0.2,2.9,0,6.9,1.4,12
	c0,1,0,1.6,0,1.6h5.9c-4.5-11-2.4-17.4-0.4-20.6c2.8,3.2,4,8.3,4.5,12.6c-0.1,2.4,0,5,0.2,8h3c0,0-0.6-1.5-1.1-3.8
	C75.7,22.8,75.4,20.9,75,19.3z M95.9,21.2c-1.4-8.3-4.3-12.5-6.1-14.4c0.3-0.5,0.6-0.9,0.8-1.2c-0.3,0.4-0.6,0.8-0.9,1.1
	c-0.9-1-1.5-1.3-1.5-1.3c0.5,0.4,1,0.9,1.5,1.4c-1.5,2.1-2.4,4.5-2.9,6.8c-0.3-2.8-0.8-5.8-1.7-9c0,0,2.5,12.9-0.6,23.4
	c-1.1-1.6-3.5-6.4-3.1-18L85,6.3l-3.6,2c0,0-4.4,5.9,0,20.3h4.5c0,0,0.5-2.1,0.8-5.4c0.6,3.2,1.5,5.4,1.5,5.4h2
	C85.6,17,87.8,10.2,89.7,6.9c4.9,6,4.9,18,4.8,21c-0.1,0.2-0.1,0.5-0.2,0.7h2.4c0,0,2.5-14.7-2.4-23C94.3,5.6,96.7,12.9,95.9,21.2z
	 M158.8,1.4c0.3-0.5,0.7-0.9,1.1-1.4C159.9,0,159.4,0.5,158.8,1.4z M144.5,7.7c0,0,0,0,0.9-5c0,0-0.4,0.2-2.4,5.2
	c0,0-3.3,10.1,0.5,20.7h1.8C145.4,28.6,140.7,15.8,144.5,7.7z M141.8,2.3c0,0-4.4,7.5-3,26.3h3C141.8,28.6,136.8,13.9,141.8,2.3z
	 M154.8,11.3c-1.5-3.7-3.1-5.8-4.2-6.9c-0.2-1.3-0.5-2.7-0.8-4.1c0,0,0.2,1.4,0.5,3.7c-0.5-0.4-0.8-0.6-0.8-0.6
	c0.3,0.2,0.5,0.5,0.8,0.8c0.5,5.3,1.1,15.2-1.1,23.8c-1.1-1.8-3.5-7.3-3.1-20.7l3.6-4.2l-3.7,2.3c0,0-4.4,6.8,0.1,23.3h4.5
	c0,0,2.3-10.8,0-24.1c1.9,2.3,3.1,5.5,3.9,8.9c-0.5,5.8,0.7,11.1,1.3,13.7c0,1,0,1.5,0,1.5h2.4c-0.1-0.4-0.3-0.8-0.4-1.3
	c-0.3-5.9-1.2-10.4-2.3-13.8c0-6.4,1.9-10.3,3.2-12.1C156.6,4.4,155.4,7.9,154.8,11.3z M159.1,28.6h2.4c0,0,2.5-14.7-2.4-23
	C159.1,5.6,163,17.7,159.1,28.6z M307.4,6.7c-3.3,7.7-1.4,22-1.4,22h2.8C306.3,20.9,307.4,6.7,307.4,6.7z M303.7,10.4
	c-2.2-5.2-7.6-3.2-7.6-3.2c1.9-0.4,3.3-0.2,4.4,0.3c-0.2,0.1-0.7,0.4-1.3,0.9c0.4-0.3,0.9-0.6,1.3-0.9c1.6,0.8,2.4,2.5,2.7,4.6
	c-0.8,2.9-1,6.1-1,8.8c-1,4.2-2.5,7.6-2.5,7.6h2.8c0.1-0.3,0.2-0.6,0.2-0.9c0.1,0.6,0.1,0.9,0.1,0.9h2.5c-0.8-1.9-1.2-3.9-1.5-5.8
	c1-5.1,0.9-8.6,0.3-11c0.5-2.9,1.2-4.7,1.2-4.7C304.6,8.1,304.1,9.2,303.7,10.4z M309.7,28.6h2.2c-5.9-11.5-1.7-17.6,0.6-19.7
	C303.3,16.8,309.7,28.6,309.7,28.6z M312.4,8.9c0.4-0.3,0.8-0.7,1.2-1C313.6,7.9,313.1,8.2,312.4,8.9z M290.9,6.6
	c0,0-0.6,0.3-1.5,1.2c-0.6-1.4-1-2.1-1-2.1c0.4,0.7,0.6,1.4,0.9,2.2c-1,1-2.3,2.7-3.6,5.3c-0.5-3.3-1.6-4.8-1.6-4.8l-3.7-2l3.6,3.7
	c0.1,3.6,0,6.5-0.3,8.8c-0.4,1.4-0.7,3-0.9,4.8c-1.1,3.8-2.4,5-2.4,5h4.1c0,0,0-0.6,0-1.6c1.4-5.1,1.7-9.1,1.4-12
	c0.7-2.6,1.8-5.1,3.4-6.9c3.3,9.7-1,20.6-1,20.6h3c0.9-11-0.8-17.6-2-20.7C289.9,7.4,290.4,7,290.9,6.6z M293.3,18.4
	c0-6.5,1.7-11.6,1.7-11.6c-4.9,7.8-2.4,21.8-2.4,21.8h2.4c-0.8-2-1.2-4.1-1.5-6.2c0.7,3.6,2.3,6.2,2.3,6.2h2.6
	c-7.1-11.8-2.1-18,0.7-20.2C295,11.5,293.6,15.1,293.3,18.4z M198.8,2.3c0.4,0.4,0.7,0.8,1.1,1.3C199.2,2.7,198.8,2.3,198.8,2.3z
	 M208.8,2.5c-3.6,14-0.8,26.1-0.8,26.1h1.7C206.2,17.1,208.8,2.5,208.8,2.5z M212.2,7.9c-2-5-2.4-5.2-2.4-5.2c0.9,5,0.9,5,0.9,5
	c3.7,8.1-0.9,20.9-0.9,20.9h1.8C215.5,18,212.2,7.9,212.2,7.9z M219.2,4.4c0.4,0.4,0.7,0.8,1.1,1.2C219.7,4.8,219.2,4.4,219.2,4.4z
	 M236.2,4.4c0.4,0.4,0.8,0.8,1.1,1.2C236.7,4.8,236.2,4.4,236.2,4.4z M253.1,10.6c-0.5-1.1-0.9-1.9-1.2-2.6c0.5-0.5,0.9-1,1.5-1.4
	c0,0-0.6,0.4-1.6,1.3C251,6.1,250.8,6,250.8,6c0.2,1,0.4,1.8,0.5,2.4c-0.9,1-1.9,2.4-2.9,4.5c-0.5-4-1.7-5.8-1.7-5.8L243,5l3.6,3.9
	c0.2,4.3,0,7.8-0.4,10.5c-0.3,1.1-0.5,2.3-0.7,3.6c-0.7,2.7-1.5,4.2-2,4.9c-3.2-10.4-0.6-23.3-0.6-23.3c-0.9,3.1-1.4,6.2-1.7,9
	c-0.6-2.8-1.8-5.6-3.9-8c2,2.6,5.8,9.6,0.5,23h2c0,0,0.9-2.2,1.5-5.4c0.3,3.4,0.8,5.4,0.8,5.4h5c0,0,0-0.6,0-1.7
	c1.3-5.1,1.6-9.1,1.5-12.1c0.6-2.2,1.5-4.4,2.8-6.1c0.3,1.6,0.3,1.6,0.3,1.6c3.7,7.1-0.9,18.3-0.9,18.3h1.8
	C256.4,19.4,253.1,10.6,253.1,10.6z M254.4,28.6h3c1.4-16.4-3-22.9-3-22.9C259.4,15.8,254.4,28.6,254.4,28.6z M256.7,5.7
	c0.4,0.4,0.7,0.7,1.1,1.1C257.2,6,256.7,5.7,256.7,5.7z M267.1,8.3l-1.2-0.7c0.4-0.4,0.7-0.7,1.2-1c0,0-0.5,0.3-1.3,1l-2.3-1.3
	l1.8,1.8c-1.1,1.1-2.4,3-3.7,5.8c-0.6-2.5-1.8-4.9-3.8-7.1c1.2,1.4,2.9,4.2,3.2,8.8c-1.1,3-2,7-2.3,12.1c-0.1,0.3-0.3,0.7-0.4,1h2.4
	c0,0,0-0.5,0-1.3c0.7-2.1,2-6.8,1.2-11.7c0.7-2.8,1.8-5.5,3.4-7.5l1.7,1.7c0.6,15.1-3.6,18.7-3.6,18.7h3.6
	C271.5,14.2,267.1,8.3,267.1,8.3z M268,28.6h3c1.4-16.4-3-22.9-3-22.9C273,15.8,268,28.6,268,28.6z M270.7,5.7
	c0.3,0.4,0.7,0.7,1,1.1C271.1,6,270.7,5.7,270.7,5.7z M276.9,5.8c-1,3.8-1.4,7.4-1.6,10.6c-0.3-3.3-1.3-6.8-3.7-9.7
	c1.8,2.4,5,9.1,0.4,21.9h1.7c0,0,1.2-3.2,1.6-7.5c0.2,4.5,0.9,7.5,0.9,7.5h1.4C274.6,18.6,276.9,5.8,276.9,5.8z M280.3,10.6
	c-1.7-4.3-2.1-4.5-2.1-4.5c0.8,4.3,0.8,4.3,0.8,4.3c3.3,7.1-0.8,18.3-0.8,18.3h1.6C283.2,19.4,280.3,10.6,280.3,10.6z M203.9,13.1
	c-0.4-2.8-1.4-5.6-3.1-8.2c0.4-0.6,0.9-1.1,1.5-1.6c0,0-0.6,0.4-1.5,1.4c-0.3-0.4-0.6-0.8-0.9-1.2c0.3,0.4,0.5,0.8,0.8,1.3
	c-1.3,1.5-3.2,4.5-4.7,9.4c-0.9-8.4-3-12-3-12c2.2,5.1,2.5,10.9,2.1,15.7c-0.4,1.9-0.7,3.9-0.9,6.3c-0.6,2.7-1.1,4.4-1.1,4.4h3
	c0.3-3.4,0.3-6.5,0.2-9.2c0.5-4.9,1.7-10.8,4.5-14.4c2,3.6,4.1,11-0.4,23.6h2c0,0,0.7-1.8,1.2-4.6c0.2,2.8,0.5,4.6,0.5,4.6h2.4
	c-3.9-10.9,0-23,0-23C205.1,7.8,204.4,10.4,203.9,13.1z M233,5.4c0,0-0.6,0.3-1.5,1.2c-0.6-1.5-1-2.2-1-2.2c0.4,0.8,0.6,1.5,0.9,2.3
	c-1,1.1-2.3,2.8-3.6,5.6c-0.5-3.5-1.6-5.1-1.6-5.1L222.6,5l3.6,3.9c0.1,3.7,0,6.8-0.3,9.3c-0.4,1.5-0.7,3.2-0.9,5.1
	c-0.7,2.8-1.6,4.2-2.1,4.9c0.8-2.2,4.3-13.1-1.6-21.4c0.4-0.5,0.9-1,1.5-1.4c0,0-0.6,0.4-1.5,1.3c-0.3-0.4-0.6-0.8-0.9-1.1
	c0.3,0.3,0.5,0.7,0.8,1.2c-1.3,1.4-3.2,4-4.6,8.4c-0.8-9.1-3-12.9-3-12.9c2.4,5.7,2.5,12.2,1.9,17.2c-0.3,1.3-0.5,2.7-0.7,4.3
	c-0.6,2.9-1.2,4.8-1.2,4.8h3c0.2-3.2,0.3-6,0.3-8.5c0.5-4.5,1.7-9.8,4.5-13.2c2,3.3,4.1,10.1-0.4,21.7h5.9c0,0,0-0.6,0-1.7
	c1.4-5.4,1.7-9.6,1.4-12.7c0.7-2.7,1.8-5.4,3.4-7.3c3.3,10.2-1,21.7-1,21.7h3c0.9-11.6-0.8-18.6-2-21.9C232,6.2,232.5,5.8,233,5.4z
	 M234.7,28.6h2.4c-3.9-10.9,0-23,0-23C232.2,13.9,234.7,28.6,234.7,28.6z M162.3,28.6h3c1.4-20.4-3-28.6-3-28.6
	C167.3,12.7,162.3,28.6,162.3,28.6z M171.5,0c0.4,0.4,0.8,0.9,1.1,1.4C172,0.5,171.5,0,171.5,0z M188.4,6.1c-2-5.4-2.4-5.6-2.4-5.6
	c0.9,5.4,0.9,5.4,0.9,5.4c3.7,8.8-0.9,22.7-0.9,22.7h1.8C191.7,17.1,188.4,6.1,188.4,6.1z M185.3,5.3L181.7,3l3.6,4.2
	c0.4,13.4-2,18.9-3.1,20.7c-3.2-12.3-0.6-27.6-0.6-27.6c-3.6,15.1-0.8,28.3-0.8,28.3h4.5C189.7,12.1,185.3,5.3,185.3,5.3z
	 M189.6,28.6h3c1.4-20.4-3-28.6-3-28.6C194.6,12.7,189.6,28.6,189.6,28.6z M176.7,12.5c-0.3-2.8-1.1-5.7-2.5-8.4
	c0.2-0.3,0.5-0.5,0.8-0.8c0,0-0.3,0.2-0.8,0.7c-0.5-0.9-1-1.8-1.6-2.6c0.4,0.7,1,1.6,1.5,2.8c-1.7,1.7-5.1,6.2-6.7,16.2
	c-0.8-5.7-1-13.5,1.7-20.4c0,0-4.4,8.2-3,28.6h3c0,0-0.2-0.5-0.4-1.4c0-4.3,0.3-17.1,5.4-22.9c1.7,4.3,3.1,12-1,24.3h1.9
	c0,0,0.7-1.9,1.2-4.9c0.2,2.9,0.5,4.9,0.5,4.9h2.4c-3.9-10.9,0-23,0-23C177.9,7.7,177.2,10.1,176.7,12.5z"/>
<linearGradient id="SVGID_3_" gradientUnits="userSpaceOnUse" x1="163.4793" y1="6.0374" x2="163.4793" y2="28.6063">
	<stop  offset="0" style="stop-color:#C0E568"/>
	<stop  offset="0.144" style="stop-color:#9FCA4B"/>
	<stop  offset="0.4601" style="stop-color:#4B8401"/>
	<stop  offset="0.4663" style="stop-color:#498300"/>
	<stop  offset="1" style="stop-color:#0D2F07"/>
</linearGradient>
<path class="st2" d="M33,13.7c-2.1-3.6-2.5-3.7-2.5-3.7c1,3.6,1,3.6,1,3.6c3,4.4,0.9,10.9-0.3,13.6c0.4-2.9,1.1-10-1.2-15.5l0.5-0.4
	l-0.6,0.3c-0.4-0.9-0.8-1.7-1.3-2.4c0,0,0.4,1,0.8,2.6l-2.5,1.1c0,0-0.1,0.1-0.2,0.3c0.1-0.5,0.3-1.1,0.6-2c0,0-0.4,0.2-2.4,3.5
	c0,0-3.3,6.8,0.5,14h7.1C36.5,21,33,13.7,33,13.7z M25.1,17.2c-0.3,1.8-0.3,4.3,0.5,7.5C25,22.5,24.5,19.7,25.1,17.2z M29.2,27
	c-1.2-1.9-2.6-5.7-2.3-12.9l2.5-2C30.2,15.5,31,21.3,29.2,27z M38.8,11.7c0.3-0.3,0.7-0.6,1.1-0.8C39.9,10.8,39.5,11.1,38.8,11.7z
	 M24.6,10.8c0,0-2.8,3.3-3.3,11c-0.4-1.3-0.8-2.4-1.2-3.4c0-4.8,1-8.6,1-8.6c-1,2.5-1.5,4.9-1.8,7.2c-1.5-2.6-3.1-4.1-4.2-4.8
	c1-1.2,2.3-2.3,3.9-3.1c0,0-1.9,0.7-4.2,2.8c-0.1-0.1-0.2-0.1-0.2-0.1c-0.4-0.4-0.8-0.8-1.2-1.1c0,0,0.4,0.6,1,1.7
	c-0.8,0.8-1.6,1.8-2.3,2.9c-0.7-1.6-1.6-3-3-4.3c0,0,1.4,2.4,2.1,5.9C9.5,19.8,8.3,23.6,8,28.6h4.4c0,0,1.9-6.1,0.2-11.9
	c0.5-1.3,1.2-2.6,2.1-3.8c1.5,3.3,3.3,9.7-1.2,15.6h3.9c0,0,3.5-9.7-2.2-16.3c0,0,0,0,0-0.1c2.1,1.7,3.3,4.1,4.1,6.6
	c-0.3,5.7,1.1,9.7,1.1,9.7h4.4C24.6,28.6,19.6,18.7,24.6,10.8z M10.8,24.9c0.1-1.3,0.3-2.9,0.7-4.6C11.4,21.7,11.2,23.3,10.8,24.9z
	 M41.7,9c0,0,0.3,4,0.2,8.7c-0.4-2-1.4-4.1-3.1-6c0,0,0,0,0,0c0,0,0,0,0,0c-0.2-0.3-0.5-0.5-0.8-0.8c0.2,0.2,0.5,0.5,0.7,0.8
	c-1.4,1.2-2.4,2.5-3.1,3.9c-0.3-1.5-0.7-3.1-1.3-4.7c0,0,0.6,2.4,0.9,5.8c-1,2.7-0.8,5.3-0.4,7.5c-0.3,1.5-0.7,3-1.3,4.4h1.7
	c0,0,0.2-0.7,0.5-1.8c0.4,1.1,0.8,1.8,0.8,1.8h1.9c-1.1-2.1-1.8-4-2.2-5.7c0.1-1.7,0.1-3.7-0.2-5.9c0.5-2.6,1.9-4.3,2.9-5.3
	c1.9,2.5,4.2,7.7-0.3,16.8h1.9c0,0,0.2-0.4,0.5-1.1c-0.1,0.4-0.2,0.7-0.3,1.1h2.4C42.9,28.6,44.5,15.8,41.7,9z M55,9.7
	c0.1-0.2,0.1-0.4,0.1-0.4C55.1,9.4,55,9.5,55,9.7c-0.1-0.2-0.2-0.3-0.2-0.4C54.8,9.3,54.9,9.4,55,9.7c-1,1.5-1.6,3.2-1.9,5
	c-0.5-1.7-1.2-3.2-2.3-4.5c0.6,0,1.2,0,1.9,0.2c0,0-0.9-0.3-2-0.3c-0.5-0.6-1.1-1.1-1.8-1.6c0,0,0.5,0.5,1,1.6
	c-0.6,0.1-1.2,0.3-1.7,0.6c0.1-0.4,0.2-0.9,0.4-1.5c0,0-0.4,0.2-2.4,3.9c0,0-0.5,1.1-0.9,3c-0.4-2.4-1.1-4.8-2.3-6.7
	c0,0,3.5,10.1,0,19.3h2.1c0,0,0.2-1.3,0.4-3.3c0.3,1.1,0.7,2.2,1.2,3.3h2.9c0,0-3.3-7.9-3-13.4c0.2-0.8,0.6-1.6,1-2.3
	c0,0,0,0,0.4-1.7c0.5-0.5,1.1-0.8,1.9-1c1.5,2.8,3.5,9,0.5,18.3h6.4C56.9,28.6,59.1,16.7,55,9.7z M55,28.2c-0.5-1.4-0.8-2.9-1.1-4.3
	c0.1-1.9,0.1-4.2-0.2-6.5c0.2-3.6,1-6.4,1.3-7.5C55.6,11.9,57.7,20.3,55,28.2z M38,10.9c-0.6-0.6-1-0.9-1-0.9
	C37.3,10.3,37.7,10.6,38,10.9z M111.8,9c-3.6,7-1.8,19.6-1.8,19.6h1.8C108.9,19.3,111.8,9,111.8,9z M114.3,28.4
	c-3.4-9.5,0.1-19.9,0.1-19.9c-4.4,7.2-2.1,20-2.1,20h3.8c0,0,1.9-12.6-1.8-19.6C114.3,9,117.1,19.2,114.3,28.4z M73.7,10.3
	c0.1,0,0.2,0,0.3,0C74,10.4,73.9,10.3,73.7,10.3c0.1-0.4,0.2-0.6,0.2-0.6c-0.1,0.2-0.2,0.3-0.3,0.5c-0.9-0.2-3.4-0.6-5.1,1.2
	c-0.2-0.9-0.5-1.7-0.8-2.5c0,0,0.1,1.3,0.2,3.3c-0.3,0.5-0.6,1.1-0.8,1.9c-0.8-2.3-2-4.4-4.1-5.7c0,0,5.9,6.9,1.7,20.1h6.2
	c0,0-0.8-2-1.6-4.6c0.2-3.4,0.2-8-0.6-11.9c0.8-1.4,2.3-2.2,4.9-1.8c-3.3,6.9-1.5,18.3-1.5,18.3h1.8C71.4,20.9,73.2,12.6,73.7,10.3z
	 M68,17.2c-0.1-0.9-0.1-1.7,0-2.5C68,15.5,68,16.3,68,17.2z M74,28.6h1.8c0,0,1.9-12.1-1.8-18.9C74,9.7,76.9,19.6,74,28.6z
	 M109.2,9.6c0.1,0,0.2,0,0.4,0.1C109.6,9.7,109.4,9.6,109.2,9.6c0.2-0.8,0.3-1.2,0.3-1.2c-0.2,0.3-0.3,0.7-0.5,1.1
	c-1.2-0.3-3.8-0.5-5.4,2c-0.1-0.3-0.2-0.6-0.3-0.9c0.6-0.7,1.2-1.4,2-1.9c0,0-0.9,0.5-2.1,1.7c-0.3-0.7-0.6-1.3-1-1.9
	c0,0,0.3,0.9,0.6,2.3c-1.3,1.5-2.8,3.8-3.9,7.4c0-0.5-0.1-0.9-0.2-1.4c0.3-4.8,1.5-8.3,1.5-8.3c-1,1.6-1.6,3.6-2,5.5
	c-0.5-1.7-1.2-3.3-2.3-4.6c0.6,0,1.2,0,1.9,0.2c0,0-0.9-0.3-2-0.3c-0.5-0.6-1.1-1.2-1.8-1.6c0,0,0.5,0.6,1,1.7
	c-1,0.1-2.2,0.6-3.1,1.9c0.1-0.6,0.3-1.4,0.7-2.8c0,0-0.4,0.2-2.4,4c0,0-0.1,0.3-0.3,0.8c-0.4-1.7-1-3.3-1.9-4.7
	c0,0,0.9,2.8,1.3,6.7c-0.4,2.1-0.8,5.2-0.1,8.6c-0.2,1.6-0.6,3.2-1.2,4.7h2.1c0,0,0.1-0.4,0.2-1c0.1,0.3,0.3,0.7,0.4,1h3.9
	c0,0-7-17.7,0.4-19c1.5,2.9,3.5,9.3,0.5,19h4.6c-0.4-1.2-0.8-2.4-1-3.6c0.2-3.8,0.9-9.9,3.7-13.9c0.1,0.4,0.2,0.8,0.2,1.2
	c-1,2.2-1.2,6.1,0.1,12.5c-0.2,1.2-0.6,2.5-1,3.7h4.3c0,0-0.8-2.1-1.6-5c0.2-3.2,0.1-7.5-1-11.2c0.6-2,2.1-3.3,5.1-2.9
	c-3,7.4-1.3,19-1.3,19h1.8C107.1,20.9,108.5,12.6,109.2,9.6z M90.3,15.9c0.1-0.5,0.2-1,0.3-1.5c-0.1,0.7-0.2,1.5-0.2,2.4
	C90.4,16.5,90.4,16.2,90.3,15.9z M91.8,26.7c-0.4-1-0.8-2.4-1.1-3.9c0-0.7,0-1.4,0-2.1C90.9,22.4,91.2,24.4,91.8,26.7z M103.5,14.7
	c0.1,1.2,0.3,2.6,0.3,4C103.5,17.4,103.4,16,103.5,14.7z M120.1,17.3c-0.5-2.4-1.6-4.9-3.9-7c1.9,2,5.5,7.6,0.5,18.4h1.9
	c0,0,0.2-0.4,0.5-1.1c-0.1,0.4-0.2,0.8-0.3,1.1h2.4c0,0,1.7-13.3-1.2-20.4C119.9,8.2,120.2,12.3,120.1,17.3z M133.2,8.9
	c0.1-0.2,0.1-0.4,0.1-0.4C133.3,8.7,133.2,8.8,133.2,8.9c-0.1-0.2-0.2-0.3-0.2-0.4C133,8.6,133.1,8.7,133.2,8.9
	c-1,1.5-1.6,3.3-1.9,5.2c-0.5-1.7-1.2-3.3-2.3-4.6c0.6,0,1.2,0,1.9,0.2c0,0-0.9-0.3-2-0.3c-0.5-0.6-1.1-1.2-1.8-1.6
	c0,0,0.5,0.6,1,1.7c-1.1,0.2-2.3,0.7-3.2,2.1c-0.4-1-0.8-2-1.4-3c0,0,0.5,1.5,0.9,3.8c-0.2,0.6-0.4,1.2-0.6,2
	c-0.6-2.5-1.7-4.8-3.5-6.2c0,0,4.9,7,1.4,20.4h6c0,0-0.8-2.1-1.6-5c0.2-3.2,0.1-7.5-1-11.2c0.5-1.5,1.4-2.6,3-2.9
	c1.5,2.9,3.5,9.3,0.5,19h6.4C135.1,28.6,137.3,16.2,133.2,8.9z M124.5,25.1c0-0.1,0-0.2,0-0.3c0,0,0,0,0,0.1
	C124.6,24.9,124.5,25,124.5,25.1z M124.8,14.7c0.1,1.2,0.3,2.6,0.3,4C124.9,17.4,124.8,16,124.8,14.7z M133.2,28.1
	c-0.5-1.5-0.8-3-1.1-4.5c0.1-2,0.1-4.4-0.2-6.8c0.2-3.7,1-6.6,1.3-7.8C133.8,11.3,135.9,20,133.2,28.1z M116.2,10.2
	c-0.6-0.6-1-0.9-1-0.9C115.5,9.6,115.9,9.9,116.2,10.2z M86.7,8.2c0,0,0.3,4.2,0.2,9.1c-0.5-2.4-1.6-4.9-3.9-7
	c1.9,2,5.3,7.3,0.9,17.4c-1-1.8-2.7-6.4-2.4-16.6l1.1-1.2c0.1,0.1,0.3,0.3,0.4,0.4c-0.1-0.2-0.3-0.3-0.4-0.4l2-2.2l-3.1,1.9
	c0,0-0.6,1-1.1,3c0.4-2,0.8-3.3,0.8-3.3c-1.1,1.8-1.8,3.9-2.2,6.1c-0.6-2.6-1.7-5.1-3.6-6.5c0,0,4.9,6.7,1.4,19.7h4.5
	c-1.9-5-1.7-10.2-1.2-14c-0.4,3.1-0.2,7.6,1.5,14h3.8c0,0,0.2-0.4,0.5-1.2c-0.1,0.4-0.2,0.8-0.3,1.2h2.4
	C87.9,28.6,89.6,15.3,86.7,8.2z M62.2,9.3c-0.1,0.1-0.1,0.2-0.2,0.3C62,9.5,62,9.4,61.9,9.3c0,0,0,0.1,0.1,0.4c-1.3,2.2-2,5-2.3,7.7
	c-0.2-3-0.6-6.1-1.5-8.4c0,0,0.9,12.8-1.1,19.7h2.2c0,0,0.2-1.5,0.3-3.6c0.2,2.2,0.4,3.6,0.4,3.6H64c0,0,2.2-11.9-1.9-18.9
	C62.2,9.4,62.2,9.3,62.2,9.3z M62.1,28.2c-2.8-7.8-0.6-16.2,0-18.3C62.7,11.9,64.8,20.3,62.1,28.2z M140.4,28.4
	C137,18.2,140.5,7,140.5,7c-1.3,2.4-2.1,5.4-2.4,8.4c-0.2-3.1-0.6-6.3-1.5-8.8c0,0,0.9,14.3-1.2,22h2.4c0,0,0.2-1.3,0.3-3.3
	c0.2,2,0.4,3.3,0.4,3.3h3.8c0,0,1.9-13.6-1.8-21.2C140.4,7.5,143.2,18.4,140.4,28.4z M146.2,16.4c-0.5-2.6-1.6-5.2-3.9-7.6
	c1.9,2.2,5.5,8.2,0.5,19.8h1.9c0,0,0.2-0.5,0.5-1.3c-0.1,0.4-0.2,0.9-0.3,1.3h2.4c0,0,1.7-14.3-1.2-22
	C146,6.6,146.3,11.1,146.2,16.4z M166.2,7c0,0,3.5,11.3,0,21.6h2.1C168.3,28.6,170.6,14.7,166.2,7z M158.2,18.4
	c-0.3-6.1,0.1-11.8,0.1-11.8c-0.6,1.6-1,3.4-1.2,5.4c-0.5-1.5-1.1-2.9-2-4c0.6,0,1.2,0,1.9,0.2c0,0-0.9-0.4-2-0.4
	c-0.5-0.7-1.1-1.3-1.8-1.8c0,0,0.5,0.6,1,1.8c-1.1,0.2-2.3,0.8-3.2,2.3C150.6,9,150.2,8,149.6,7c0,0,0.5,1.6,0.9,4.1
	c-0.2,0.6-0.4,1.3-0.6,2.1c-0.6-2.7-1.7-5.1-3.5-6.7c0,0,4.9,7.5,1.4,22.1h6c0,0-0.8-2.3-1.6-5.4c0.2-3.5,0.1-8.1-1-12.1
	c0.5-1.6,1.4-2.8,3-3.1c1.5,3.2,3.5,10.1,0.5,20.6h4.7c-0.7-2.6-1.1-5.9-1.3-9.2C158.2,19.1,158.2,18.7,158.2,18.4z M150.6,24.8
	c0-0.1,0-0.2,0-0.3c0,0,0,0.1,0,0.1C150.6,24.6,150.6,24.7,150.6,24.8z M150.9,13.6c0.1,1.3,0.3,2.8,0.3,4.3
	C150.9,16.5,150.8,15,150.9,13.6z M141.2,7.8c0.4,0.3,0.7,0.7,1,1C141.7,8.1,141.2,7.8,141.2,7.8z M288.4,17.7
	c0.4-4,1.4-6.8,1.4-6.8c-1,1.5-1.7,3.2-2.1,5c-0.6-1.2-1.4-2.4-2.5-3.5c0,0,0,0,0.1-0.1c0,0,0,0-0.1,0.1c-0.2-0.2-0.5-0.5-0.8-0.7
	c0.2,0.2,0.5,0.5,0.7,0.7c-1.2,1.1-2.1,2.2-2.7,3.4c-0.3-0.9-0.5-1.5-0.5-1.5c-0.7-1.2-1.2-2-1.5-2.5c0.6-1.2,1.2-1.8,1.2-1.8
	c-0.6,0.3-1.1,0.8-1.6,1.2c-0.4-0.5-0.5-0.5-0.5-0.5c0.1,0.3,0.1,0.6,0.2,0.8c-0.4,0.4-0.8,0.9-1.1,1.4c-1.7-1.8-4.2-1.5-5.2-1.3
	c-0.1-0.2-0.2-0.4-0.3-0.5c0.1-0.2,0.1-0.3,0.1-0.3c-0.1,0.1-0.1,0.2-0.2,0.3c-0.1-0.1-0.1-0.2-0.2-0.3c0,0,0,0.1,0.1,0.3
	c-4.1,6.4-1.9,17.4-1.9,17.4h3.9c0,0,2.1-10.4-1.6-16.9c2.6-0.4,4.1,0.4,4.9,1.7c-2.4,4.3-2,10.5-1.5,13.5c-0.4,1-0.7,1.7-0.7,1.7
	h5.3c0.3-0.6,0.6-1.2,0.8-1.8c0.4,1.1,0.8,1.8,0.8,1.8h1.9c-0.9-1.7-1.5-3.2-1.9-4.6c0.6-3,0.2-5.6-0.3-7.4c0.6-2,1.7-3.4,2.5-4.2
	c0.9,1,1.9,2.6,2.3,4.8c-0.3,2-0.4,4.1-0.3,5.8c-0.4,1.6-1.1,3.5-2.2,5.5h1.9c0,0,0.3-0.5,0.6-1.3c0.1,0.8,0.2,1.3,0.2,1.3h2.1
	c-0.6-1.6-1-3.2-1.3-4.7C288.9,22,289,19.9,288.4,17.7z M273,28.2c-2.7-7.2-0.6-14.9,0-16.8c0,0.1,0.1,0.3,0.1,0.4
	c-0.1,0-0.2,0.1-0.2,0.1c0.1,0,0.1,0,0.2,0C273.9,14.3,275.6,21.4,273,28.2z M278.4,21.7c-0.2-2.5,0.1-4.7,0.5-6.4
	C279.2,17.2,278.9,19.5,278.4,21.7z M281.3,23.7c-0.5,2-1.2,3.7-1.6,4.4c-0.2-0.7-0.4-1.4-0.6-2.1c1.6-6.3,1.3-9.9,0.2-12
	c0.2-0.6,0.4-1.1,0.6-1.5c0.4,1.6,0.4,1.6,0.4,1.6c0.7,1,1.1,2.1,1.3,3.3C281,19.6,281,21.8,281.3,23.7z M284.4,11.7
	c-0.6-0.6-1.1-0.8-1.1-0.8C283.7,11.1,284.1,11.4,284.4,11.7z M291,10.5c-2.8,6.3-1.2,18.1-1.2,18.1h2.4
	C290.1,22.3,291,10.5,291,10.5z M285.3,12.3c0.3-0.3,0.7-0.5,1-0.8C286.3,11.5,285.9,11.8,285.3,12.3z M319,11
	c-4.3,4-4.5,9.9-4.1,13.7c-2.6-7.3,2.1-14,2.1-14c-1.9,1.5-3.1,3.2-3.8,5c-0.3-1.9-0.8-3.9-1.6-5.9c0,0,0.9,3.3,1,7.6
	c-0.5,1.8-0.6,3.7-0.5,5.3c-0.2-1-0.5-1.9-0.8-2.8c-0.7-6.5-3.1-9.2-3.1-9.2c1.4,2.3,2,4.7,2.2,7c-1.3-2.6-2.8-4.5-4.2-5.8
	c0.2-0.2,0.5-0.4,0.8-0.5c0,0-0.3,0.1-0.8,0.5c-2.3-2.1-4.2-2.8-4.2-2.8c1.6,0.8,2.8,1.9,3.9,3.1c-0.3,0.2-0.7,0.5-1.1,0.9
	c-1.2-1.9-1.4-2-1.4-2c0.4,1.4,0.6,2.2,0.7,2.7c-1.1,1.1-2.2,2.7-3.2,4.9c-0.1-1-0.2-1.9-0.4-2.7c0.4-4,1.5-6.8,1.5-6.8
	c-1,1.5-1.7,3.2-2.2,5c-0.4-0.9-0.8-1.3-0.8-1.3l-2.9-1.2c0.1-0.4,0.2-0.7,0.2-0.7c-0.1,0.2-0.1,0.4-0.2,0.6l-0.7-0.3l0.6,0.5
	c-3,8.6-0.8,16-0.6,16.7c-0.1,0-0.1,0.1-0.1,0.1c0,0-4.9-9.2-1-15c0,0,0,0,1-3.6c0,0-0.4,0.2-2.5,3.7c0,0-3.5,7.3,0.6,14.9h8.6
	c-0.5-1.3-0.9-2.5-1.2-3.8c0.2-3.1,1-7.5,3.4-10.7c0.1,0.3,0.1,0.3,0.1,0.3c3.7,5.5-0.9,14.1-0.9,14.1h1.8c3.8-7.1,0.5-14,0.5-14
	c-0.3-0.5-0.6-1-0.8-1.4c0.3-0.3,0.7-0.7,1-1c2.6,3.1,3.7,7.3,4.2,10.6c-0.6,3.3-1.8,5.7-1.8,5.7h4.8c0-0.3,0-0.5-0.1-0.8
	c0.1,0.5,0.2,0.8,0.2,0.8h5.9C313.6,20.2,319,11,319,11z M296.3,27.2c-2.1-6-1-12.9-0.5-15.3l2.9,2.3
	C299.1,21.6,297.5,25.4,296.3,27.2z M207.6,8.2c-5.3,4.1-4.4,15.7-3.9,19.3c-1.1-2.6-1.7-4.9-1.9-6.8c0.2-2,0.3-3.6,0.2-5
	c0.6-2.7,1.8-4.5,2.8-5.4c-1.3,1.3-2.3,2.7-2.9,4.1c-0.2-0.8-0.4-1.5-0.6-2.1c0.9-3,2.2-4.5,2.2-4.5c-1.3,0.8-2.2,2-3,3.3
	c-1.7-2.1-4.2-1.7-5.2-1.4c-0.1-0.2-0.2-0.4-0.3-0.6c0.1-0.2,0.1-0.4,0.1-0.4c-0.1,0.1-0.1,0.2-0.2,0.3c-0.1-0.1-0.1-0.2-0.2-0.3
	c0,0,0,0.1,0.1,0.4c-4.1,7.3-1.9,19.7-1.9,19.7h3.9c0,0,2.1-11.7-1.6-19c2.6-0.4,4.1,0.4,4.9,1.9c-2.4,4.9-2,11.9-1.5,15.2
	c-0.4,1.2-0.7,1.9-0.7,1.9h3.8c-0.3-1-0.6-2-0.8-2.9c0.1-0.3,0.1-0.6,0.2-0.8c0.5,2.2,1.3,3.7,1.3,3.7h3.9
	C202.7,15.1,207.6,8.2,207.6,8.2z M194.8,28.1c-2.8-8.1-0.6-16.8,0-19c0,0.1,0.1,0.3,0.1,0.5c-0.1,0-0.2,0.1-0.2,0.1
	c0.1,0,0.1,0,0.2,0C195.7,12.5,197.4,20.5,194.8,28.1z M200.2,20.8c-0.2-2.9,0.1-5.3,0.5-7.2C201,15.7,200.7,18.4,200.2,20.8z
	 M216.2,28.6h1.8c0,0,1.9-12.6-1.8-19.6C216.2,9,219.1,19.3,216.2,28.6z M191.5,8.2c-0.9,2.3-1.4,5.2-1.5,8.1
	c-0.3-2.8-1.1-5.5-2.4-7.7c0,0,3.4,10.4,0.1,19.9c-2.8-9.3,0-19.4,0-19.4c-3.6,7-1.8,19.6-1.8,19.6h3.8c0,0,0.2-1.2,0.4-3.1
	c0.1,1.9,0.3,3.1,0.3,3.1h2.4C190.6,21.5,191.5,8.2,191.5,8.2z M210.5,8.2c-2.8,7.1-1.2,20.4-1.2,20.4h2.4
	C209.5,21.5,210.5,8.2,210.5,8.2z M213.6,8.6c0,0,3.4,10.4,0.1,19.9c-2.8-9.3,0-19.4,0-19.4c-3.6,7-1.8,19.6-1.8,19.6h3.8
	C215.7,28.6,218,15.8,213.6,8.6z M209.2,8.6c-4.4,7.2-2.1,20-2.1,20h2.1C205.7,19.1,209.2,8.6,209.2,8.6z M204.7,10.2
	c0.3-0.3,0.7-0.6,1-0.9C205.7,9.3,205.3,9.6,204.7,10.2z M262.6,9c-2.8,6.9-1.2,19.7-1.2,19.7h2.4C261.7,21.7,262.6,9,262.6,9z
	 M242.4,9.3c-4.4,6.9-2.1,19.3-2.1,19.3h2.1C238.9,19.4,242.4,9.3,242.4,9.3z M237.6,15.6c0.6-2.3,1.8-3.8,2.6-4.7
	c-1.3,1.2-2.2,2.5-2.9,3.8c-0.3-1-0.5-1.6-0.5-1.6c-0.7-1.3-1.2-2.1-1.5-2.7c0.6-1.3,1.2-1.9,1.2-1.9c-0.6,0.4-1.1,0.8-1.6,1.3
	c-0.4-0.5-0.5-0.6-0.5-0.6c0.1,0.3,0.1,0.6,0.2,0.9c-0.4,0.5-0.8,1-1.1,1.6c-1.7-2-4.2-1.6-5.2-1.4c-0.1-0.2-0.2-0.4-0.3-0.6
	c0.1-0.2,0.1-0.4,0.1-0.4c-0.1,0.1-0.1,0.2-0.2,0.3c-0.1-0.1-0.1-0.2-0.2-0.3c0,0,0,0.1,0.1,0.4c-1.1,1.8-1.7,4-2.1,6.2
	c-0.1-0.2-0.2-0.5-0.3-0.7c-0.5-4.2-2.5-5.5-4.2-5.8c-0.6-0.5-1-0.7-1-0.7c0.3,0.2,0.5,0.4,0.8,0.7c-0.9-0.1-1.6,0-2.1,0.1
	c-0.2-0.4-0.3-0.7-0.5-1.1c0,0,0.1,0.4,0.3,1.1c-0.2,0.1-0.4,0.1-0.4,0.1c0.1,0,0.3,0,0.4-0.1c0.7,3,2.1,11.3-0.3,19h1.8
	c0,0,1.7-11.6-1.3-19c0.9-0.1,1.7-0.1,2.4,0.1c1.3,1.3,2.3,3,3,4.9c0.4,5.7-3,14.1-3,14.1h2.4c0.8-3.1,1.3-5.8,1.6-8
	c-0.1,4.4,0.6,8,0.6,8h3.9c0,0,2-11.2-1.6-18.3c2.6-0.4,4.1,0.4,4.9,1.8c-2.4,4.7-2,11.4-1.5,14.6c-0.4,1.1-0.7,1.8-0.7,1.8h5.3
	c0.3-0.7,0.6-1.3,0.8-2c0.4,1.2,0.8,2,0.8,2h1.9c-0.9-1.8-1.5-3.4-1.9-4.9C238.4,20.4,238.1,17.5,237.6,15.6z M221.7,9.7
	c1.4,0.5,2.2,1.6,2.6,3.1C223.3,11.3,222.4,10.3,221.7,9.7z M228.4,26.9c-0.3-3.7-0.9-6.6-1.7-9c0.2-3.8,1-6.9,1.3-8.1
	c0,0.1,0.1,0.3,0.1,0.5c-0.1,0-0.2,0.1-0.2,0.1c0.1,0,0.1,0,0.2,0C228.8,12.9,230.4,20,228.4,26.9z M233.3,21.1
	c-0.2-2.8,0.1-5.1,0.6-6.9C234.2,16.2,233.9,18.7,233.3,21.1z M236.3,23.2c-0.5,2.2-1.2,4-1.6,4.8c-0.2-0.8-0.4-1.5-0.6-2.2
	c1.6-6.8,1.3-10.8,0.2-13c0.2-0.6,0.4-1.2,0.6-1.7c0.4,1.7,0.4,1.7,0.4,1.7c0.7,1.1,1.1,2.3,1.3,3.6
	C235.9,18.9,235.9,21.2,236.3,23.2z M240.2,10.9c0.3-0.3,0.7-0.6,1-0.9C241.3,10.1,240.8,10.3,240.2,10.9z M262.6,8.5
	c-2.1,1.3-3.3,3.4-4.1,5.7c-0.3-1-0.6-1.8-1.1-2.3c-0.3-0.7-0.6-1.4-0.9-2.1c0,0,0.2,0.6,0.4,1.5c-0.9-0.9-2-1.1-2.9-1.2
	c0.1-0.2,0.1-0.3,0.1-0.3c-0.1,0.1-0.1,0.2-0.2,0.3c-0.9,0-1.6,0.1-2,0.2c0.4-0.9,0.8-1.4,0.8-1.4c-1.9,1.5-3.1,3.9-3.6,6.5
	c-0.4-2.2-1.1-4.4-2.2-6.1c0,0,3.5,10.1,0,19.3h4.5c-2.6-9.5-0.6-15.7,0.6-18.3c0.7-0.1,1.3-0.2,1.9-0.1c-3.3,6.9-1.5,18.4-1.5,18.4
	h1.8c-2.5-7.8-0.7-16.3-0.1-18.4c1.7,0.1,2.7,1,3.2,2.3c0.2,1.2,0.4,2.8,0.6,4.5c-0.3,5.3-3,11.6-3,11.6h6.2
	C256.6,15.3,262.6,8.5,262.6,8.5z M246.5,10.2l-3.1-1.8l3.1,3.3c0.3,8.7-1,13.2-2.1,15.3c-1.6-7.1-0.8-18.1-0.8-18.1
	c-2.8,6.9-1.2,19.7-1.2,19.7h4C250.2,15.6,246.5,10.2,246.5,10.2z M269.7,10.5c-0.9,2.2-1.3,5-1.5,7.7c-0.3-2.6-1-5.3-2.5-7.4
	c0,0,3.3,9,0.2,17.3c-3.2-9.1,0.2-18.8,0.2-18.8c-4.4,6.9-2.1,19.3-2.1,19.3h3.9c0,0,0.3-1.3,0.4-3.4c0.1,2,0.3,3.4,0.3,3.4h2.2
	C268.8,22.3,269.7,10.5,269.7,10.5z M181.5,6.5c-5.3,4.5-4.4,17-3.9,20.9c-1.1-2.8-1.7-5.2-1.9-7.4c0.2-2.1,0.3-3.9,0.2-5.4
	c0.6-2.9,1.8-4.8,2.8-5.9c-1.3,1.4-2.3,2.9-2.9,4.4c-0.2-0.9-0.4-1.7-0.6-2.3c0.9-3.2,2.2-4.9,2.2-4.9c-1.3,0.9-2.2,2.1-3,3.5
	c-1.3-1.7-3-1.9-4.2-1.7c-0.1-0.4-0.3-0.9-0.4-1.3c0,0,0,0.5,0.1,1.3c-0.6,0.1-1.1,0.3-1.1,0.3c0.4-0.1,0.7-0.1,1.1-0.2
	c0.2,3.8,0.5,14.4-1.3,20.6h2.4c0,0,1.5-12.7-0.7-20.6c2-0.1,3.2,0.8,3.9,2.2c-2.4,5.3-2,12.8-1.5,16.4c-0.4,1.3-0.7,2.1-0.7,2.1
	h3.8c-0.3-1.1-0.6-2.1-0.8-3.1c0.1-0.3,0.1-0.6,0.2-0.9c0.5,2.4,1.3,4,1.3,4h3.9C176.6,14.1,181.5,6.5,181.5,6.5z M174.1,20.2
	c-0.2-3.1,0.1-5.7,0.5-7.8C174.9,14.7,174.6,17.5,174.1,20.2z M184.4,6.6c-2.8,7.7-1.2,22-1.2,22h2.4
	C183.4,20.9,184.4,6.6,184.4,6.6z M164,7.4c0.1-0.3,0.1-0.4,0.1-0.4C164.1,7.1,164.1,7.2,164,7.4c-0.1-0.2-0.2-0.3-0.2-0.4
	C163.8,7,163.9,7.1,164,7.4c-4.2,7.8-2,21.2-2,21.2h3.9C165.9,28.6,168.1,15.2,164,7.4z M164,28.1c-2.8-8.8-0.6-18.2,0-20.5
	C164.6,9.9,166.8,19.3,164,28.1z M161.8,7c-4.4,7.8-2.1,21.6-2.1,21.6h2.1C158.3,18.3,161.8,7,161.8,7z M183.1,7
	c-4.4,7.8-2.1,21.6-2.1,21.6h2.1C179.7,18.3,183.1,7,183.1,7z M178.6,8.8c0.3-0.3,0.7-0.7,1-1C179.6,7.8,179.2,8.1,178.6,8.8z"/>
<linearGradient id="SVGID_4_" gradientUnits="userSpaceOnUse" x1="164.2031" y1="11.8686" x2="164.2031" y2="28.6063">
	<stop  offset="0" style="stop-color:#C0E568"/>
	<stop  offset="0.144" style="stop-color:#9FCA4B"/>
	<stop  offset="0.4601" style="stop-color:#4B8401"/>
	<stop  offset="0.4663" style="stop-color:#498300"/>
	<stop  offset="1" style="stop-color:#0D2F07"/>
</linearGradient>
<path class="st3" d="M8.1,13.3c-1-0.5-1.7-0.8-1.7-0.8C7,12.8,7.6,13,8.1,13.3z M8.1,13.3c3.2,1.7,9.1,6.4,0.8,15.3h3.1
	C11.9,28.6,20.8,19.4,8.1,13.3z M51,12.4c-5.7,3.9-3.4,16.2-3.4,16.2h2.1C46.6,17.9,51,12.4,51,12.4z M36.1,12.8
	c-2.1,5.5-0.9,15.8-0.9,15.8H37C35.4,23.1,36.1,12.8,36.1,12.8z M52.2,12.5c-3.3,8.6-0.8,16.1-0.8,16.1H53
	C49.8,21.5,52.2,12.5,52.2,12.5z M37.3,11.9c0,0,3.3,8.8,0,16.7h2C39.2,28.6,41.4,17.9,37.3,11.9z M33.7,12.5
	C30.4,21.1,33,28.6,33,28.6h1.5C31.3,21.5,33.7,12.5,33.7,12.5z M48.2,13.1c0,0-3,2.9-3.5,14.6c-2.7-7.7,0.3-15.8,0.3-15.8
	c-1.5,2.2-2.2,5-2.4,7.7c-0.3-2.3-1-3.7-1-3.7c-1.8-3.1-2.1-3.2-2.1-3.2c0.8,3.1,0.8,3.1,0.8,3.1c3.4,5-0.8,12.9-0.8,12.9h1.7
	c0.8-1.5,1.2-2.9,1.4-4.2c0.1,2.5,0.5,4.2,0.5,4.2h2.5C45.6,28.6,45.2,17,48.2,13.1z M122.3,12.4c-5.7,3.9-3.4,16.2-3.4,16.2h2.1
	C117.9,17.9,122.3,12.4,122.3,12.4z M103.8,12.4c-5.7,3.9-3.4,16.2-3.4,16.2h2.1C99.4,17.9,103.8,12.4,103.8,12.4z M118.2,12.8
	c-2.8,8.4-0.6,15.8-0.6,15.8h1.3C116.2,21.7,118.2,12.8,118.2,12.8z M82.7,12.4c-5.7,3.9-3.4,16.2-3.4,16.2h2.1
	C78.3,17.9,82.7,12.4,82.7,12.4z M86.3,12.8c-2.1,5.5-0.9,15.8-0.9,15.8h1.8C85.5,23.1,86.3,12.8,86.3,12.8z M69.5,12.4
	c-5.1,3.5-3.7,13.8-3.4,15.9c-3-7.9,0.1-16.4,0.1-16.4c-1.5,2.2-2.2,5-2.4,7.7c-0.3-2.3-1-3.7-1-3.7c-1.8-3.1-2.1-3.2-2.1-3.2
	c0.8,3.1,0.8,3.1,0.8,3.1c3.4,5-0.8,12.9-0.8,12.9h1.7c0.8-1.5,1.2-2.9,1.4-4.2c0.1,2.5,0.5,4.2,0.5,4.2h4
	C65.1,17.9,69.5,12.4,69.5,12.4z M78.5,12.8c-1,3-1.3,5.8-1.4,8.2C77,17.9,76,15.8,76,15.8c-1.8-3.1-2.1-3.2-2.1-3.2
	c0.8,3.1,0.8,3.1,0.8,3.1c3.2,4.7-0.3,11.9-0.8,12.8C72.4,22.9,73,12.8,73,12.8c-2.1,5.5-0.9,15.8-0.9,15.8h3.3c1.1-2,1.5-4,1.6-5.8
	c0.1,3.5,0.8,5.8,0.8,5.8h1.3C76.5,21.7,78.5,12.8,78.5,12.8z M56,12.4c-5,3.9-2.9,16.2-2.9,16.2H55C52.2,17.9,56,12.4,56,12.4z
	 M57.2,12.8c-2.1,5.5-0.9,15.8-0.9,15.8h1.8C56.5,23.1,57.2,12.8,57.2,12.8z M129.8,19.6c-0.3-2.3-1-3.7-1-3.7
	c-1.8-3.1-2.1-3.2-2.1-3.2c0.8,3.1,0.8,3.1,0.8,3.1c3.4,5-0.8,12.9-0.8,12.9h1.7c0.8-1.5,1.2-2.9,1.4-4.2c0.1,2.5,0.5,4.2,0.5,4.2h2
	c-3.3-8,0-16.7,0-16.7C130.8,14.1,130.1,16.9,129.8,19.6z M124.4,11.9c0,0,3.3,8.8,0,16.7h2C126.4,28.6,128.5,17.9,124.4,11.9z
	 M123.5,12.5c-3.3,8.6-0.8,16.1-0.8,16.1h1.5C121.1,21.5,123.5,12.5,123.5,12.5z M83.9,12.5c-3.3,8.6-0.8,16.1-0.8,16.1h1.5
	C81.5,21.5,83.9,12.5,83.9,12.5z M70.7,12.5c-3.3,8.6-0.8,16.1-0.8,16.1h1.5C68.3,21.5,70.7,12.5,70.7,12.5z M58.4,11.9
	c0,0,3.3,8.8,0,16.7h2C60.4,28.6,62.5,17.9,58.4,11.9z M116.9,13.1c0,0-3.1,2.9-3.5,15c-1.4-5.6-0.7-15.3-0.7-15.3
	c-0.8,2.1-1.1,5-1.2,7.7c-0.2-2.8-1.1-4.7-1.1-4.7c-1.8-3.1-2.1-3.2-2.1-3.2c0.8,3.1,0.8,3.1,0.8,3.1c1.5,2.3,1.5,5.1,1,7.5
	c-1.2-6-3.6-9-5.1-10.3c0.1-0.3,0.1-0.4,0.1-0.4c-0.1,0.1-0.1,0.3-0.1,0.4c-0.7-0.6-1.1-0.8-1.1-0.8c0.4,0.3,0.8,0.6,1.1,0.9
	c-3,8.4-0.6,15.6-0.6,15.6h1.5c-2.7-6.1-1.3-13.5-0.9-15.6c3.5,3.6,4,10.5,4.1,13.8c-0.4,1.1-0.8,1.8-0.8,1.8h2.5
	c0-0.6-0.1-1.1-0.1-1.6c0.5-1.3,0.8-2.6,0.9-3.8c0.1,3.1,0.3,5.4,0.3,5.4h2.5C114.3,28.6,113.9,17,116.9,13.1z M148.7,12.4
	c-5.7,3.9-3.4,16.2-3.4,16.2h2.1C144.3,17.9,148.7,12.4,148.7,12.4z M162.9,12.8c-2.1,5.5-0.9,15.8-0.9,15.8h1.8
	C162.2,23.1,162.9,12.8,162.9,12.8z M144.6,12.8c-2.8,8.4-0.6,15.8-0.6,15.8h1.3C142.6,21.7,144.6,12.8,144.6,12.8z M155.2,15.8
	c-1.8-3.1-2.1-3.2-2.1-3.2c0.8,3.1,0.8,3.1,0.8,3.1c3.4,5-0.8,12.9-0.8,12.9h1.7C158.2,22.1,155.2,15.8,155.2,15.8z M173.7,12.5
	c-3.3,8.6-0.8,16.1-0.8,16.1h1.5C171.3,21.5,173.7,12.5,173.7,12.5z M159.3,28.6h2c-3.3-8,0-16.7,0-16.7
	C157.2,17.9,159.3,28.6,159.3,28.6z M150.8,11.9c0,0,3.3,8.8,0,16.7h2C152.8,28.6,155,17.9,150.8,11.9z M149.9,12.5
	c-3.3,8.6-0.8,16.1-0.8,16.1h1.5C147.5,21.5,149.9,12.5,149.9,12.5z M143.3,13.1c0,0-3,2.9-3.5,14.7c-0.1-0.2-0.1-0.3-0.2-0.5
	c-0.2-2.6-0.6-4.7-1.1-6.5c-0.1-4.6,0.9-8.4,0.9-8.4c-0.9,2.2-1.3,4.4-1.5,6.4c-2.1-5.3-5-6.8-5-6.8c0.3,0.2,0.7,0.5,1,0.8
	c-2.1,5.6-0.9,15.8-0.9,15.8h1.8c-1.5-5.2-1-14.6-0.9-15.7c2.4,2.3,3.4,6.2,3.9,9.5c0,1.3,0.2,2.5,0.3,3.5c0.1,1.7,0,2.8,0,2.8h2.7
	C140.7,28.6,140.3,17,143.3,13.1z M101,13.1c0,0-3,2.9-3.5,14.6c-2.7-7.7,0.3-15.8,0.3-15.8c-1.5,2.2-2.2,5-2.4,7.7
	c-0.3-2.3-1-3.7-1-3.7c-0.7-1.3-1.2-2-1.5-2.5c0.1-0.1,0.1-0.2,0.2-0.2c0,0-0.1,0.1-0.2,0.2c-0.5-0.6-0.6-0.7-0.6-0.7
	c0.1,0.4,0.2,0.8,0.3,1.1c-0.7,1.1-2,3.8-2.7,9.5c0.1-3.6-0.3-8.2-2.5-11.4c0,0,3.3,8.8,0,16.7h2c0,0,0.1-0.6,0.2-1.6
	c0,0.5,0,1-0.1,1.6h0.9c0,0-0.3-10.4,2.2-14.8c0.5,1.9,0.5,1.9,0.5,1.9c3.4,5-0.8,12.9-0.8,12.9H94c0.8-1.5,1.2-2.9,1.4-4.2
	c0.1,2.5,0.5,4.2,0.5,4.2h2.5C98.4,28.6,98,17,101,13.1z M320.3,13.3c0.5-0.3,1.1-0.5,1.7-0.8C322,12.5,321.3,12.8,320.3,13.3z
	 M320.3,13.3c-12.7,6.2-3.8,15.3-3.8,15.3h3.1C311.2,19.6,317.1,15,320.3,13.3z M291,28.6h1.8c0,0,1.2-10.3-0.9-15.8
	C291.9,12.8,292.6,23.1,291,28.6z M275.5,27.4c0.4-3.2,1.1-11.8-3.5-15c0,0,4.4,5.5,1.2,16.2h3.3c0,0,2.6-7.5-0.8-16.1
	C275.8,12.5,277.9,20.5,275.5,27.4z M288.2,23.3c-0.6-5.7-2-8.5-2.7-9.6c0.1-0.3,0.2-0.7,0.3-1.1c0,0-0.1,0.1-0.6,0.7
	c-0.1-0.1-0.2-0.2-0.2-0.2c0.1,0.1,0.1,0.2,0.2,0.2c-0.3,0.5-0.8,1.2-1.5,2.5c0,0-0.7,1.5-1,3.7c-0.2-2.7-0.9-5.5-2.4-7.7
	c0,0,3,8.1,0.3,15.8c-0.4-11.7-3.5-14.6-3.5-14.6c3,3.8,2.6,15.5,2.6,15.5h2.5c0,0,0.3-1.8,0.5-4.2c0.2,1.4,0.7,2.8,1.4,4.2h1.7
	c0,0-4.2-7.9-0.8-12.9c0,0,0,0,0.5-1.9c2.5,4.4,2.2,14.8,2.2,14.8h0.9c0-0.6,0-1.1-0.1-1.6c0.1,1,0.2,1.6,0.2,1.6h2
	c-3.3-8,0-16.7,0-16.7C288.5,15.1,288.1,19.7,288.2,23.3z M293.5,28.6h1.5c0,0,2.6-7.5-0.8-16.1C294.3,12.5,296.7,21.5,293.5,28.6z
	 M205.7,12.4c0,0,4.4,5.5,1.2,16.2h2.1C209,28.6,211.3,16.3,205.7,12.4z M193.3,28.6h1.8c0,0,1.2-10.3-0.9-15.8
	C194.2,12.8,194.9,23.1,193.3,28.6z M217.1,28.5c-0.5-0.9-3.9-8.2-0.8-12.8c0,0,0,0,0.8-3.1c0,0-0.4,0.1-2.1,3.2c0,0-3,6.3,0.5,12.8
	h3.3c0,0,1.2-10.3-0.9-15.8C218,12.8,218.7,22.9,217.1,28.5z M238.2,28.6h1.8c0,0,1.2-10.3-0.9-15.8
	C239.1,12.8,239.8,23.1,238.2,28.6z M248.8,28.6c-0.3-0.6-4.1-8.1-0.8-12.9c0,0,0,0,0.8-3.1c0,0-0.4,0.1-2.1,3.2
	c0,0-0.4,0.9-0.7,2.3c-0.5-2.3-1.5-4.4-3.3-5.7c0,0,4.4,5.5,1.2,16.2h2.1c0,0,0.2-0.8,0.3-2.2c0.2,0.7,0.5,1.4,0.9,2.2h2.9
	c0,0,2.1-7.3-0.6-15.8C249.5,12.8,251.5,21.6,248.8,28.6z M251.4,28.6h1.8c0,0,1.2-10.3-0.9-15.8C252.3,12.8,253,23.1,251.4,28.6z
	 M269.3,12.4c0,0,3.8,5.5,1.1,16.2h1.8C272.2,28.6,274.3,16.3,269.3,12.4z M267.3,28.6h1.8c0,0,1.2-10.3-0.9-15.8
	C268.2,12.8,268.9,23.1,267.3,28.6z M200.5,15.7c0,0,0,0,0.8-3.1c0,0-0.4,0.1-2.1,3.2c0,0-0.7,1.5-1,3.7c-0.2-2.7-0.9-5.5-2.4-7.7
	c0,0,3.3,8.8,0,16.7h2c0,0,0.3-1.8,0.5-4.2c0.2,1.4,0.7,2.8,1.4,4.2h1.7C201.3,28.6,197.1,20.7,200.5,15.7z M201.6,28.6h2
	c-3.3-8,0-16.7,0-16.7C199.5,17.9,201.6,28.6,201.6,28.6z M203.7,28.6h1.5c0,0,2.6-7.5-0.8-16.1C204.5,12.5,206.9,21.5,203.7,28.6z
	 M222.3,28.5c0.2-1.2,2-12.4-3.4-16.1c0,0,4.4,5.5,1.2,16.2h3.6c0,0,2.6-7.5-0.8-16.1C223,12.5,225.3,21.4,222.3,28.5z M235.4,23.3
	c-0.6-5.7-2-8.5-2.7-9.5c0.1-0.3,0.2-0.7,0.3-1.1c0,0-0.1,0.1-0.6,0.7c-0.1-0.1-0.2-0.2-0.2-0.2c0.1,0.1,0.1,0.2,0.2,0.2
	c-0.3,0.5-0.8,1.2-1.5,2.5c0,0-0.7,1.5-1,3.7c-0.2-2.7-0.9-5.5-2.4-7.7c0,0,3,8.1,0.3,15.8c-0.4-11.7-3.5-14.6-3.5-14.6
	c3,3.8,2.6,15.5,2.6,15.5h2.5c0,0,0.3-1.8,0.5-4.2c0.2,1.4,0.7,2.8,1.4,4.2h1.7c0,0-4.2-7.9-0.8-12.9c0,0,0,0,0.5-1.9
	c2.5,4.4,2.2,14.8,2.2,14.8h0.9c0-0.5,0-1.1-0.1-1.6c0.1,1,0.2,1.6,0.2,1.6h2c-3.3-8,0-16.7,0-16.7
	C235.7,15.1,235.3,19.7,235.4,23.3z M240.7,28.6h1.5c0,0,2.6-7.5-0.8-16.1C241.5,12.5,243.9,21.5,240.7,28.6z M216.3,12.1
	c0,0-3.1,1.6-5.2,7.2c-0.2-2-0.6-4.2-1.3-6.4c0,0,0.8,3.7,0.7,8.2c-0.5,1.9-0.9,4.1-1.1,6.8c-0.1,0.2-0.2,0.5-0.2,0.7h1.9
	C211.1,28.6,210.4,16.2,216.3,12.1z M263.9,15.7c0,0,0,0,0.8-3.1c0,0-0.4,0.1-2.1,3.2c0,0-0.7,1.5-1,3.7c-0.2-2.7-0.9-5.5-2.4-7.7
	c0,0,3.2,8.5,0.1,16.4c0.3-2,1.7-12.3-3.4-15.9c0,0,4.4,5.5,1.2,16.2h4c0,0,0.3-1.8,0.5-4.2c0.2,1.4,0.7,2.8,1.4,4.2h1.7
	C264.7,28.6,260.5,20.7,263.9,15.7z M253.9,28.6h1.5c0,0,2.6-7.5-0.8-16.1C254.7,12.5,257.1,21.5,253.9,28.6z M265,28.6h2
	c-3.3-8,0-16.7,0-16.7C262.9,17.9,265,28.6,265,28.6z M179.3,12.4c0,0,4.4,5.5,1.2,16.2h2.1C182.6,28.6,184.9,16.3,179.3,12.4z
	 M164.3,28.6h1.8c0,0,1.2-10.3-0.9-15.8C165.1,12.8,165.8,23.1,164.3,28.6z M182.8,28.6h1.3c0,0,2.1-7.3-0.6-15.8
	C183.4,12.8,185.4,21.7,182.8,28.6z M171.4,15.7c0,0,0,0,0.8-3.1c0,0-0.4,0.1-2.1,3.2c0,0-0.7,1.5-1,3.7c-0.2-2.7-0.9-5.5-2.4-7.7
	c0,0,3.3,8.8,0,16.7h2c0,0,0.3-1.8,0.5-4.2c0.2,1.4,0.7,2.8,1.4,4.2h1.7C172.3,28.6,168.1,20.7,171.4,15.7z M156.2,28.6h1.5
	c0,0,2.6-7.5-0.8-16.1C156.9,12.5,159.3,21.5,156.2,28.6z M175.2,28.6h2c-3.3-8,0-16.7,0-16.7C173,17.9,175.2,28.6,175.2,28.6z
	 M177.3,28.6h1.5c0,0,2.6-7.5-0.8-16.1C178.1,12.5,180.5,21.5,177.3,28.6z M192.6,12.1c0,0-0.5,0.2-1.1,0.8
	c-0.1-0.1-0.1-0.3-0.1-0.4c0,0,0,0.2,0.1,0.4c-1.1,1-2.8,3-4.1,6.6c-1-5-2.6-6.4-2.6-6.4c1.2,1.6,1.9,4.5,2.2,7.4
	c-0.7,2.2-1.2,4.8-1.3,8.1h2.6c-0.1-2.5-0.2-4.7-0.5-6.5c0.5-3.2,1.5-6.8,3.7-9.1c0.5,2.1,1.8,9.5-0.9,15.6h1.5
	c0,0,2.4-7.2-0.6-15.6C191.8,12.7,192.2,12.3,192.6,12.1z M187.3,27.9c0-0.3,0-0.7,0-1.3C187.3,27.2,187.3,27.6,187.3,27.9z"/>
<linearGradient id="SVGID_5_" gradientUnits="userSpaceOnUse" x1="164" y1="10.0715" x2="164" y2="28.6063">
	<stop  offset="0" style="stop-color:#C0E568"/>
	<stop  offset="0.144" style="stop-color:#9FCA4B"/>
	<stop  offset="0.4601" style="stop-color:#4B8401"/>
	<stop  offset="0.4663" style="stop-color:#498300"/>
	<stop  offset="1" style="stop-color:#0D2F07"/>
</linearGradient>
<path class="st4" d="M38,15.5l-2.4-1.3l2.3,2.4c0.3,7.6-1.3,10.7-2,11.7c0.3-1.6,1.2-8.2-1.6-12.1c0,0,2.5,6.5,0,12.4H38
	C40.9,19.3,38,15.5,38,15.5z M44.8,28.6h2c0.9-10.6-2-14.8-2-14.8C48.1,20.3,44.8,28.6,44.8,28.6z M9.6,16.3
	c-8.3,5-2.5,12.3-2.5,12.3h2C3.7,21.4,7.5,17.6,9.6,16.3z M9.6,16.3c0.3-0.2,0.7-0.4,1.1-0.6C10.7,15.6,10.2,15.8,9.6,16.3z
	 M16.8,15.5c-2.8,7-0.6,13.1-0.6,13.1h1.3C14.7,22.8,16.8,15.5,16.8,15.5z M11.2,16.7c0.2-0.2,0.5-0.4,0.8-0.6
	C12,16.2,11.7,16.3,11.2,16.7z M11.2,16.7c-5.9,4.8-1.8,11.9-1.8,11.9h1.4C7,21.7,9.8,18.1,11.2,16.7z M14.4,16.3l0.2-0.1L14.4,16.3
	c0-0.6,0.1-0.9,0.1-0.9c-0.1,0.3-0.3,0.6-0.4,1l-2.7,0.9c0,0-3.8,3.3,0,11.3h3.9C14,24.9,14.2,18.7,14.4,16.3z M13.4,27.5
	c-1-1.3-2.3-4.1-2-9.2l2.6-1.7C12.8,20.2,13.2,25.2,13.4,27.5z M53.9,28.6h1.3c-2.2-6.8,0-14.2,0-14.2
	C52.4,19.5,53.9,28.6,53.9,28.6z M45.4,15.5c-2.2,1.4-3,4.2-3.3,6.9c0-2.2-0.2-4.8-0.7-7.5c0,0,1,7.7-0.3,13.8h0.6
	c0,0,0.2-1.4,0.3-3.7c0.1,2.1,0.4,3.7,0.4,3.7h1.8C41.6,20,45.4,15.5,45.4,15.5z M22,16.5c0.3-0.2,0.6-0.4,0.9-0.6
	C23,15.9,22.6,16.1,22,16.5z M37.7,13.9c0,0,4.3,5,1.2,14.7H41C41,28.6,43.2,17.5,37.7,13.9z M32.7,28.4c-0.6-0.6-2.3-3.1-2-9.9
	l2.2-2l-2.2,1.1c0,0-0.5,0.6-0.8,1.9c-0.2-1.2-0.5-2.4-0.9-3.3c0,0,0.4,4.9-0.1,9.1c0.1-2.7-0.2-6.3-2.4-8.5l0.5-0.4l-0.6,0.3
	c-0.3-0.3-0.7-0.6-1.1-0.8c0,0,0.3,0.3,0.7,1l-1.6,0.7c0,0-0.6,0.6-1,2c-0.3-1.1-0.7-2.1-1.3-3c0.1,0,0.1-0.1,0.2-0.1
	c-0.1,0-0.1,0.1-0.2,0.1c0-0.1-0.1-0.1-0.1-0.2c0,0,0,0.1,0.1,0.2c-3.2,2.3-3.8,5.1-3.5,7.4c-0.4-2.4-0.3-5.3,1.4-7.9
	c0,0-3.2,3.6-2.2,12.4h2.2c0,0-0.4-0.9-0.9-2.2c0.5,1.3,1.1,2.2,1.1,2.2h1.7c-4.4-6.8-1.6-10.5,0.2-12c0.2,0.6,0.8,2.6,1,5.1
	c0,0.5,0,1,0,1.6c0,1.7-0.3,3.6-1.1,5.4h1.5c0,0,0.2-0.8,0.3-2c0.2,0.6,0.4,1.3,0.7,2h5.5c0,0,0.1-1,0.2-2.4
	c0.2,0.7,0.4,1.5,0.7,2.4h3.6c-2.5-5.9,0-12.4,0-12.4C31.3,20.3,32.4,27.3,32.7,28.4z M26.4,28.2c-0.8-0.9-2.5-3.5-2.2-9.7l1.7-1.3
	C27,18.9,28.3,22.7,26.4,28.2z M59.3,15c0,0-0.2,0.1-0.9,2.7c0,0-1.3,5.3,0.2,10.9h0.7c0,0-1.8-6.8-0.4-11
	C58.9,17.6,58.9,17.6,59.3,15z M51.7,28.6h0.6c0,0,1.1-6.4-0.3-13.8C52,14.8,53,22.6,51.7,28.6z M50.8,15c0,0-0.2,0.1-0.9,2.7
	c0,0-1.3,5.3,0.2,10.9h0.7c0,0-1.8-6.8-0.3-11C50.5,17.6,50.5,17.6,50.8,15z M47.5,28.6h0.6c0,0,1.1-6.4-0.3-13.8
	C47.8,14.8,48.8,22.6,47.5,28.6z M143.5,12.2l-2.4-1.6l2.3,3c0.3,10.1-1.5,13.8-2.1,14.8c-0.4-1.5-0.7-3-0.8-4.3
	c0.1-1.2,0.1-2.6,0-4.1c0.4-4.2,2-6.4,2-6.4c-1.1,0.8-1.8,2-2.3,3.3c-0.5-2.7-1.5-5.2-3.3-6.7c0,0,0.7,1,1.3,2.9l-2.1,1.3
	c0,0-2.7,4.1,0,14.1h7.3C146.3,17,143.5,12.2,143.5,12.2z M138.1,28.4c-0.6-0.8-2.3-4-2-12.7l2.1-2.4
	C139.1,16.2,139.9,21.2,138.1,28.4z M143.9,28.6h2c0.9-13.2-2-18.5-2-18.5C147.2,18.3,143.9,28.6,143.9,28.6z M131.5,28.6h1.9
	c0,0-3-9.7,0-17.4C133.4,11.2,130.7,16.2,131.5,28.6z M130.6,10.2c-2.4,9.8-0.5,18.4-0.5,18.4h1.1C128.9,20.5,130.6,10.2,130.6,10.2
	z M122.9,28.6h2c0.9-13.2-2-18.5-2-18.5C126.1,18.3,122.9,28.6,122.9,28.6z M88.7,14.2l-2.4-1.4l2.3,2.6c0.3,8.8-1.5,12.1-2.1,12.9
	c0.2-1.6,1.3-10.1-1.6-15.1c0,0,2.5,8.1,0,15.4h3.7C91.6,18.4,88.7,14.2,88.7,14.2z M95.4,28.6h2c0.9-11.6-2-16.2-2-16.2
	C98.7,19.6,95.4,28.6,95.4,28.6z M80.7,13.3c0,0-2.7,4.4-1.9,15.3h1.9C80.7,28.6,77.6,20.1,80.7,13.3z M77.9,12.5
	c-2.4,8.6-0.5,16.1-0.5,16.1h1.1C76.1,21.5,77.9,12.5,77.9,12.5z M71.8,14.2l-2.4-1.4l2.3,2.6c0.3,8.8-1.5,12.1-2.1,12.9
	c-2.6-8.5,1.2-12.9,1.2-12.9c-1.6,1-2.4,2.7-2.9,4.6c-0.5-5.4-2-7.7-2-7.7c3.2,7.2,0,16.2,0,16.2h5.8C74.6,18.4,71.8,14.2,71.8,14.2
	z M106.6,28.6h1.3c-2.2-8.4,0-17.7,0-17.7C105.2,17.3,106.6,28.6,106.6,28.6z M65.4,14.2l-2.4-1.4l2.3,2.6
	c0.2,7.3-0.9,10.8-1.7,12.3c-0.6-1.3-1.5-4.3-1.3-10.4l1.9-2.2l-1.9,1.2c0,0-2.3,3.6,0,12.4h3.1C68.3,18.4,65.4,14.2,65.4,14.2z
	 M61.5,13.3c0,0-2.4,4.4-1.6,15.3h1.6C61.5,28.6,58.9,20.1,61.5,13.3z M56.7,13.9c-2.1,7.9-0.5,14.7-0.5,14.7h0.9
	C55.2,22.1,56.7,13.9,56.7,13.9z M135.5,11c-3.2,6.3-1.5,17.6-1.5,17.6h1.5C132.9,20.2,135.5,11,135.5,11z M96.1,15.5
	c-2.2,1.4-3,4.2-3.3,6.9c0-2.2-0.2-4.8-0.7-7.5c0,0,1,7.7-0.3,13.8h0.6c0,0,0.2-1.4,0.3-3.7c0.1,2.1,0.4,3.7,0.4,3.7H95
	C92.2,20,96.1,15.5,96.1,15.5z M77.1,15.5c-1.6,1-2.4,2.7-2.9,4.6c-0.5-5.4-2-7.7-2-7.7c3.2,7.2,0,16.2,0,16.2H76
	C73.2,20,77.1,15.5,77.1,15.5z M88.3,12.5c0,0,4.3,5.5,1.2,16.1h2.1C91.6,28.6,93.8,16.4,88.3,12.5z M83.3,28.4
	c-0.6-0.7-2.3-3.5-2-11.2l2.2-2.2l-2.2,1.2c0,0-2.7,3.6,0,12.4h3.6c-2.5-7.3,0-15.4,0-15.4C81.9,18.3,83.1,27,83.3,28.4z
	 M116.9,10.8c0,0-3.8,2-5.8,9.5c0-1.5,0.2-3,0.6-4.3c0,0,0,0,0.3-3c0,0-0.2,0.1-0.9,3.1c0,0-0.5,2.6-0.5,6.3
	c-0.4,1.8-0.6,3.8-0.7,6.2c-0.1-0.6-1.7-7.9-0.3-12.6c0,0,0,0,0.4-3c0,0-0.2,0.1-0.9,3.1c0,0-1.3,6.1,0.2,12.5h2.8
	c0,0-0.2-0.8-0.4-2C111.7,22.7,112.3,14.1,116.9,10.8z M128.9,13c0,0-0.2,0.1-0.9,3.1c0,0-1.3,6.1,0.2,12.5h0.7
	c0,0-1.8-7.7-0.3-12.6C128.5,16,128.5,16,128.9,13z M125.5,28.6h0.6c0,0,1.1-7.3-0.3-15.7C125.8,12.9,126.9,21.7,125.5,28.6z
	 M150.5,28.6h1.9c0,0-3-9.7,0-17.4C152.4,11.2,149.7,16.2,150.5,28.6z M149.6,10.2c-2.4,9.8-0.5,18.4-0.5,18.4h1.1
	C147.8,20.5,149.6,10.2,149.6,10.2z M154.4,11c-3.2,6.3-1.5,17.6-1.5,17.6h1.5C151.9,20.2,154.4,11,154.4,11z M147.8,13
	c0,0-0.2,0.1-0.9,3.1c0,0-1.3,6.1,0.2,12.5h0.7c0,0-1.8-7.7-0.4-12.6C147.5,16,147.5,16,147.8,13z M122.5,13c0,0-0.2,0.1-0.9,3.1
	c0,0-0.1,0.4-0.2,1c-0.3-3.4-1.2-5-1.2-5l-2.4-1.6l2.3,3c0.3,10.1-1.5,13.8-2.1,14.8c-2.6-9.7,1.1-14.7,1.1-14.7
	c-2.2,1.6-3,4.8-3.3,7.9c0-2.5-0.2-5.5-0.7-8.6c0,0,1,8.8-0.3,15.7h0.6c0,0,0.2-1.6,0.3-4.2c0.1,2.4,0.4,4.2,0.4,4.2h3.9
	c0.4-1.8,0.7-3.4,0.9-4.8c0.1,1.5,0.3,3.2,0.7,4.8h0.7c0,0-1.8-7.7-0.3-12.6C122.2,16,122.2,16,122.5,13z M104.4,28.6h0.6
	c0,0,1.1-6.4-0.3-13.8C104.7,14.8,105.8,22.6,104.4,28.6z M103.5,15c0,0-0.2,0.1-0.9,2.7c0,0-1.3,5.3,0.2,10.9h0.7
	c0,0-1.8-6.8-0.3-11C103.2,17.6,103.2,17.6,103.5,15z M100.2,28.6h0.6c0,0,1.1-6.4-0.3-13.8C100.5,14.8,101.5,22.6,100.2,28.6z
	 M99.3,15c0,0-0.2,0.1-0.9,2.7c0,0-1.3,5.3,0.2,10.9h0.7c0,0-1.8-6.8-0.3-11C99,17.6,99,17.6,99.3,15z M287.9,17.9l2.3-2.1l-2.4,1.2
	c0,0-2.8,3.4,0,11.6h2.3C290.2,28.6,287.5,26.5,287.9,17.9z M287.4,15.5c0,0-2.9,3.7-2,13.1h2C287.4,28.6,284.2,21.3,287.4,15.5z
	 M318.4,16.3c2.1,1.4,5.9,5.1,0.5,12.3h2C320.9,28.6,326.7,21.2,318.4,16.3z M308.3,16.2c3.4,5.2,0.4,11.7,0,12.4
	c-2.4-5.8,0-12.1,0-12.1c-3.1,4.4-1.5,12.2-1.5,12.2h3.7C311.5,19.7,308.3,16.2,308.3,16.2z M314.7,16.7c-0.5-0.4-0.8-0.6-0.8-0.6
	C314.1,16.4,314.4,16.5,314.7,16.7z M317.8,15.4c0,0,0,0.2,0,0.5c-0.3-0.2-0.5-0.3-0.5-0.3c0.2,0.1,0.4,0.2,0.5,0.3
	c0.1,1.1,0.2,4.1,0,7.1c0-2.1-0.8-4.4-3.2-6.3c1.5,1.3,4.2,4.9,0.4,11.9h1.4c0,0,0.8-1.3,1.2-3.2c-0.2,1.1-0.4,2.2-0.7,3.2h1.8
	c0,0,1.1-7.9-0.6-12.6c0.1,0.1,0.2,0.1,0.4,0.2c-0.1-0.1-0.3-0.2-0.4-0.2C317.9,15.8,317.9,15.6,317.8,15.4z M266.5,28.6h1.3
	c0,0,1.4-9.1-1.3-14.2C266.5,14.4,268.7,21.9,266.5,28.6z M301.8,16.5c-0.5-0.4-0.9-0.6-0.9-0.6C301.2,16.1,301.5,16.3,301.8,16.5z
	 M305.3,21.2c0-2.8,0.1-5,0.1-5c-0.4,0.9-0.7,2-0.9,3.2c-0.5-0.9-1.3-1.8-2.3-2.6c0.4-0.6,0.7-0.9,0.7-0.9c-0.4,0.2-0.7,0.4-1,0.7
	c-0.1,0-0.1-0.1-0.2-0.1c0.1,0,0.1,0.1,0.2,0.1c-0.7,0.6-1.2,1.3-1.6,2.2c-0.4-0.8-0.7-1.2-0.7-1.2l-2.7-1.1l2.6,2
	c0,0.9,0,1.8,0,2.5c-0.2,0.9-0.3,1.9-0.3,2.8c-0.4,2.3-1.2,3.5-1.7,4.2c2.4-7.3-0.2-10.3-0.2-10.3l-2.2-1.1l2.2,2
	c0.3,6.8-1.4,9.2-2,9.9c0.2-1.2,1.3-8.2-1.6-12.3c0,0,2.5,6.5,0,12.4h5.8c0-0.1,0.1-0.2,0.1-0.2c0,0.1,0,0.2,0,0.2h2
	c-0.5-1.4-0.8-2.7-1-3.9c0.3-1.7,0.3-3.1,0.1-4.2c0.3-1.7,0.9-2.9,1.4-3.6c0.9,0.8,1.9,2,2.2,3.8c-0.1,1.1-0.1,2.3-0.1,3.3
	c-0.3,1.3-1,2.9-2.1,4.6h1.7c0,0,0.3-0.4,0.6-1.1c0.1,0.7,0.1,1.1,0.1,1.1h1.7c-0.4-1.2-0.7-2.8-0.8-4.3
	C305.6,23.3,305.6,22.3,305.3,21.2z M286.1,15.6c-1.7,1-2.6,2.5-3.2,4.2c-0.5-1.2-1.3-2.2-2.5-2.9c0,0,1.7,1.8,2,5.2
	c-0.1,1-0.1,2-0.1,2.9c-0.1,1.1-0.4,2.2-0.9,3.5h3.4C281.8,20.1,286.1,15.6,286.1,15.6z M292.1,28.6h1.5c-2.5-5.9,0-12.4,0-12.4
	C290.5,20.6,292.1,28.6,292.1,28.6z M314.5,17.3l-3-1c-0.1-0.3-0.2-0.5-0.3-0.8c0,0,0.1,0.3,0.2,0.8l-0.1,0l0.1,0.1
	c0.4,2.1,1.3,7.7-0.8,12.3h3.9C318.3,20.6,314.5,17.3,314.5,17.3z M312.1,28c0.4-1.6,1.3-6.3-0.5-11.6l2.9,1.9
	C314.8,24.1,313.1,26.9,312.1,28z M270.9,16.5c0.4,2.3,0.4,2.3,0.4,2.3c1.4,3.8-0.4,9.8-0.4,9.8h0.7c1.5-4.9,0.2-9.7,0.2-9.7
	C271,16.6,270.9,16.5,270.9,16.5z M273.9,16.4c-1.4,6.5-0.3,12.2-0.3,12.2h0.6C272.9,23.3,273.9,16.4,273.9,16.4z M275.1,16.5
	c0.3,2.3,0.3,2.3,0.3,2.3c1.4,3.8-0.3,9.8-0.3,9.8h0.7c1.5-4.9,0.2-9.7,0.2-9.7C275.2,16.6,275.1,16.5,275.1,16.5z M278.1,16.4
	c-1.4,6.5-0.3,12.2-0.3,12.2h0.6C277.1,23.3,278.1,16.4,278.1,16.4z M279.3,16.5c0.3,2.3,0.3,2.3,0.3,2.3c1.4,3.8-0.3,9.8-0.3,9.8
	h0.7c1.5-4.9,0.2-9.7,0.2-9.7C279.5,16.6,279.3,16.5,279.3,16.5z M290.7,16.4c-1.4,6.5-0.3,12.2-0.3,12.2h0.6
	C289.7,23.3,290.7,16.4,290.7,16.4z M186.2,10.1c0,0-2.9,5.3-2,18.5h2C186.2,28.6,182.9,18.3,186.2,10.1z M194.1,14.5l-2.1-1.3
	c0.6-1.9,1.3-2.9,1.3-2.9c-1.8,1.5-2.8,4-3.3,6.7c-0.5-1.3-1.3-2.5-2.3-3.3c0,0,1.6,2.2,2,6.4c-0.1,1.4-0.1,2.8,0,4.1
	c-0.1,1.3-0.4,2.7-0.8,4.3c-0.6-1-2.4-4.7-2.1-14.8l2.3-3l-2.4,1.6c0,0-2.8,4.8,0,16.4h7.3C196.7,18.6,194.1,14.5,194.1,14.5z
	 M192,28.4c-1.8-7.1-1-12.2-0.1-15.1l2.1,2.4C194.3,24.3,192.6,27.5,192,28.4z M196.7,28.6h1.9c0.8-12.5-1.9-17.4-1.9-17.4
	C199.8,18.9,196.7,28.6,196.7,28.6z M199,28.6h1.1c0,0,1.8-8.6-0.5-18.4C199.5,10.2,201.2,20.5,199,28.6z M235.2,15.4l2.3-2.6
	l-2.4,1.4c0,0-2.8,4.2,0,14.4h2.3C237.5,28.6,234.8,26.1,235.2,15.4z M234.7,12.4c0,0-2.9,4.6-2,16.2h2
	C234.7,28.6,231.4,19.6,234.7,12.4z M244.7,16.3l-2.2-1.2l2.2,2.2c0.3,7.7-1.5,10.5-2,11.2c0.2-1.4,1.3-10.1-1.6-15.2
	c0,0,2.5,8.1,0,15.4h3.6C247.3,19.8,244.7,16.3,244.7,16.3z M245.2,28.6h1.9c0.8-10.9-1.9-15.3-1.9-15.3
	C248.3,20.1,245.2,28.6,245.2,28.6z M247.5,28.6h1.1c0,0,1.8-7.5-0.5-16.1C248,12.5,249.7,21.5,247.5,28.6z M253.7,13.8
	c0,0-1.3,2-1.9,6.5c-0.4-2-1.3-3.8-3-4.8c0,0,3.8,4.5,1.1,13.1h3.8C253.7,28.6,250.4,20.3,253.7,13.8z M215.9,28.6h1.3
	c0,0,1.4-11.4-1.3-17.7C215.9,10.9,218,20.2,215.9,28.6z M260,13.8c0,0-1.3,2-1.9,6.5c-0.4-1.9-1.3-3.7-2.9-4.8l1.3-1.3l-2.4,1.3
	c0,0-2.8,3.8,0,13.1h5.8C260,28.6,256.7,20.3,260,13.8z M256.3,28.4c-0.6-0.8-2.4-3.8-2.1-11.8l1-1
	C255.4,15.9,258.8,20.2,256.3,28.4z M263.6,16.3l-1.7-1.1l1-1l-2.4,1.3c0,0-2.8,3.8,0,13.1h3.1C265.9,19.8,263.6,16.3,263.6,16.3z
	 M262.2,27.7c-0.8-1.4-1.9-4.6-1.7-11.2l1.3-1.3l1.8,2C263.8,23.4,262.8,26.4,262.2,27.7z M264.4,28.6h1.6c0.7-10-1.6-13.9-1.6-13.9
	C267,20.8,264.4,28.6,264.4,28.6z M268.7,28.6h0.9c0,0,1.6-6.1-0.5-13C269.2,15.6,270.7,22.9,268.7,28.6z M194.7,28.6h1.5
	c0,0,1.6-11.3-1.5-17.6C194.7,11,197.2,20.2,194.7,28.6z M233.3,12.5c-1.8,1.3-2.8,3.5-3.3,5.8c-0.5-1.2-1.3-2.2-2.3-2.9
	c0,0,1.6,1.9,2,5.6c-0.1,1.2-0.1,2.5,0,3.5c-0.1,1.2-0.4,2.6-0.9,4h3.4C229.1,18,233.3,12.5,233.3,12.5z M239.4,28.6h1.5
	c-2.5-7.3,0-15.4,0-15.4C237.7,18.7,239.4,28.6,239.4,28.6z M175.1,14.5l-2.1-1.3c0.6-1.9,1.3-2.9,1.3-2.9c-1.8,1.5-2.8,4-3.3,6.7
	c-0.5-1.3-1.3-2.5-2.3-3.3c0,0,1.6,2.2,2,6.3c-0.1,1.4-0.1,2.8,0,4.1c-0.1,1.3-0.4,2.7-0.8,4.3c-0.6-1-2.4-4.7-2.1-14.8l2.3-3
	l-2.4,1.6c0,0-0.7,1.2-1,3.7c-0.6-3.7-1.4-5.5-1.6-5.7c0,0,0,0,0,0c0,0,0,0,0,0c0,0,0,0,0,0c0,0,0,0,0,0c-0.1,0.3-1,2.1-1.6,5.7
	c-0.4-2.5-1-3.7-1-3.7l-2.4-1.6l2.3,3c0.3,10.1-1.5,13.8-2.1,14.8c-0.4-1.6-0.7-3-0.8-4.3c0.1-1.2,0.1-2.6,0-4.1
	c0.4-4.2,2-6.3,2-6.3c-1.1,0.8-1.8,2-2.3,3.3c-0.5-2.7-1.5-5.2-3.3-6.7c0,0,0.7,1,1.3,2.9l-2.1,1.3c0,0-2.7,4.1,0,14.1h7.3
	c0.2-0.9,0.4-1.7,0.6-2.5c0,0.8,0.1,1.7,0.1,2.5h3.9c0.1-0.9,0.1-1.7,0.1-2.5c0.2,0.8,0.3,1.6,0.6,2.5h7.3
	C177.7,18.6,175.1,14.5,175.1,14.5z M157.1,28.4c-0.6-0.8-2.3-4-2-12.7l2.1-2.4C158.1,16.2,158.8,21.2,157.1,28.4z M166.4,20.1
	c-0.2,4.4-1.2,7.9-1.4,8.4c-0.2-0.5-1.2-4-1.4-8.4c0-0.9,0-1.7,0-2.5c0.1-2.5,0.5-5.1,1.4-7.5c0.9,2.4,1.3,5,1.4,7.5
	C166.4,18.4,166.4,19.2,166.4,20.1z M173,28.4c-1.8-7.1-1-12.2-0.1-15.1l2.1,2.4C175.3,24.3,173.6,27.5,173,28.4z M177.8,28.6h1.9
	c0.8-12.5-1.9-17.4-1.9-17.4C180.8,18.9,177.8,28.6,177.8,28.6z M180,28.6h1.1c0,0,1.8-8.6-0.5-18.4C180.5,10.2,182.3,20.5,180,28.6
	z M175.7,28.6h1.5c0,0,1.6-11.3-1.5-17.6C175.7,11,178.2,20.2,175.7,28.6z M182.3,13c0.4,3,0.4,3,0.4,3c1.4,4.9-0.4,12.6-0.4,12.6
	h0.7c1.5-6.4,0.2-12.5,0.2-12.5C182.4,13.1,182.3,13,182.3,13z M209.7,13c0.3,3,0.3,3,0.3,3c1.4,4.7-0.2,12-0.3,12.6
	c-0.2-3.9-0.8-7-1.6-9.5c0.1-3.5,0.4-6.2,0.4-6.2c-0.3,1.9-0.5,3.8-0.6,5.5c-1.1-3-2.4-4.9-3.4-6l1.4-1.8l-1.9,1.3
	c-0.6-0.6-1-0.9-1.2-1c0.1-0.3,0.2-0.5,0.3-0.8c0,0-0.1,0.2-0.3,0.7c0,0-0.1,0-0.1,0c0,0,0,0,0.1,0.1c-0.7,1.9-2.4,7.3-1.7,17.8h2
	c0,0-3-9.7-0.3-17.8c0.4,0.3,0.8,0.7,1.2,1.1l-0.4,0.3c0,0-2.8,4.8,0,16.4h2.3c0,0-2.7-2.9-2.3-15.1l0.8-1c2.2,2.9,3.1,7.3,3.4,10.8
	c0,1.4,0.1,2.6,0.2,3.5c0,1.1,0,1.9,0,1.9h2.4c1.5-6.4,0.2-12.5,0.2-12.5C209.9,13.1,209.7,13,209.7,13z M214.8,12.9
	c-0.5,3.1-0.7,6.1-0.7,8.6c-0.2-3-1-6.2-3.3-7.9c0,0,3.8,5.1,1.1,15h1.8c0,0,0.3-1.8,0.4-4.2c0.1,2.6,0.3,4.2,0.3,4.2h0.6
	C213.8,21.7,214.8,12.9,214.8,12.9z M218.1,15c0.4,2.6,0.4,2.6,0.4,2.6c1.4,4.3-0.4,11-0.4,11h0.7c1.5-5.6,0.2-10.9,0.2-10.9
	C218.3,15.1,218.1,15,218.1,15z M221.1,14.8c-1.4,7.4-0.3,13.8-0.3,13.8h0.6C220.1,22.6,221.1,14.8,221.1,14.8z M222.3,15
	c0.3,2.6,0.3,2.6,0.3,2.6c1.4,4.3-0.3,11-0.3,11h0.7c1.5-5.6,0.2-10.9,0.2-10.9C222.5,15.1,222.3,15,222.3,15z M225.4,14.8
	c-1.4,7.4-0.3,13.8-0.3,13.8h0.6C224.3,22.6,225.4,14.8,225.4,14.8z M226.6,15c0.3,2.6,0.3,2.6,0.3,2.6c1.4,4.3-0.3,11-0.3,11h0.7
	c1.5-5.6,0.2-10.9,0.2-10.9C226.7,15.1,226.6,15,226.6,15z M238,14.8c-1.4,7.4-0.3,13.8-0.3,13.8h0.6C237,22.6,238,14.8,238,14.8z"
	/>
<linearGradient id="SVGID_6_" gradientUnits="userSpaceOnUse" x1="164" y1="28.6063" x2="164" y2="34.0313">
	<stop  offset="0" style="stop-color:#0D2F07"/>
	<stop  offset="1" style="stop-color:#0D2F07;stop-opacity:0"/>
</linearGradient>
<rect x="1.7" y="28.6" class="st5" width="324.6" height="5.4"/>
<linearGradient id="SVGID_7_" gradientUnits="userSpaceOnUse" x1="164" y1="14.0379" x2="164" y2="28.6063">
	<stop  offset="0" style="stop-color:#C0E568"/>
	<stop  offset="2.466192e-02" style="stop-color:#B6DD5F"/>
	<stop  offset="0.1493" style="stop-color:#87B636"/>
	<stop  offset="0.2597" style="stop-color:#659A19"/>
	<stop  offset="0.3507" style="stop-color:#518907"/>
	<stop  offset="0.411" style="stop-color:#498300"/>
	<stop  offset="0.5213" style="stop-color:#3F7501"/>
	<stop  offset="0.7268" style="stop-color:#265204"/>
	<stop  offset="0.9018" style="stop-color:#0D2F07"/>
</linearGradient>
<path class="st6" d="M15.5,19.1c1,1.4,1.4,2.8,1.4,4.2c-0.1-2.1-1.2-3.1-1.2-3.1l-2.3-0.8l2.3,1.5c0.2,3-0.4,4.9-0.9,6
	c0.3-1.4,0.3-3.4-0.7-5.1c0.3-0.4,0.7-0.9,1.2-1.3c0,0-0.6,0.4-1.2,1.2c-0.8-1.2-2-2.2-4.2-2.9c0,0,1.5,0.8,2.4,2.4
	c-0.8-0.4-1.7-0.5-2.4-0.5c0.1-0.4,0.3-0.6,0.3-0.6c-0.2,0.2-0.3,0.4-0.4,0.6c-0.7,0-1.2,0.1-1.3,0.1c-0.2-0.3-0.4-0.6-0.7-0.9
	C7.8,19.5,8,19.2,8,19.2c-0.2,0.2-0.4,0.4-0.6,0.6c-0.2-0.2-0.4-0.4-0.6-0.6c0,0,0.2,0.3,0.4,0.8c-1.9,2.1-2,4.8-1.8,6.6
	c-0.8-2.5,0-4.8,0.6-6c0,0,0.1,0,0.1-0.1c0,0,0,0-0.1,0c0.3-0.5,0.5-0.8,0.5-0.8c-0.4,0.3-0.8,0.7-1.1,1c-0.1,0-0.1,0.1-0.2,0.1
	c0.1,0,0.1-0.1,0.2-0.1c-1,1.3-1.4,2.8-1.5,4.1c-0.3-0.7-0.7-1.4-1.2-1.9c0.5-1.1,1.6-1.8,2.4-2.2c-1.3,0.6-2.1,1.2-2.7,1.8
	C1.3,21.4,0,20.9,0,20.9c1.1,0.5,1.8,1.2,2.4,2c-2.2,2.8,0.8,5.7,0.8,5.7h5.7c0,0,0.1-0.2,0.1-0.4c0.1,0.3,0.2,0.4,0.2,0.4h8.2
	C18.3,21.8,15.5,19.1,15.5,19.1z M2.7,23.5c0.7,1.3,0.9,2.8,1,3.8C2.6,25.7,2.4,24.5,2.7,23.5z M7.4,27.6c-1.6-2.9-0.7-5.7,0-7.3
	C8.1,21.9,9,24.8,7.4,27.6z M8.9,22c-0.2-0.4-0.4-0.8-0.6-1.2c0.5-0.1,0.9-0.1,1.3-0.1C9.3,21.2,9.1,21.6,8.9,22z M12.7,24.1
	c-0.1,0.2-0.1,0.4-0.1,0.5c-0.5,1.7-1.6,3.3-1.9,3.8c-0.6-0.8-1-1.6-1.2-2.4c0.1-0.9,0.1-2.1-0.2-3.2c0.1-0.9,0.3-1.6,0.5-2.1
	C12.5,20.8,13,22.4,12.7,24.1z M41.4,24c-0.1-1.6-0.3-3.2-1-4.5c0,0,0.2,1.9,0.1,4.1c-0.3-1.7-1.1-3.4-2.9-4.3c0,0,3.5,3.2,1,9.3
	h2.5c0,0,0-0.2,0.1-0.6c0,0.2,0,0.4,0.1,0.6h1.6c0,0-2.5-4.3,0-7.7C42.8,20.9,41.9,21.9,41.4,24z M38,20.5c-0.6,1.2-0.8,2.4-0.9,3.5
	c-0.1-1.4-0.5-2.9-1.4-4.1c0.1-0.1,0.2-0.3,0.3-0.4c0,0-0.1,0.1-0.3,0.4c0-0.1-0.1-0.1-0.1-0.2c0,0,0,0.1,0.1,0.2
	c-0.6,0.9-2,3.3-1.6,7.9c-1.6-4.1-0.1-8.8-0.1-8.8c-0.6,1.3-0.9,2.5-1.1,3.7c-0.5-1.5-1.2-2.2-1.2-2.2c0.7,0.9,1,1.9,1.1,2.8
	c-0.1,0.8-0.1,1.5,0,2.1c-0.3,1.7-1,3-1.1,3.2c-0.5-1.2-0.7-2.7-0.8-4.1c0-0.3,0-0.5,0-0.8c-0.1-2.5,0.1-4.8,0.1-4.8
	c-0.4,0.8-0.7,1.8-0.8,2.7c-0.1-0.2-0.3-0.3-0.3-0.3L28,20.7c0.2-0.3,0.5-0.6,0.7-0.7c-0.3,0.2-0.6,0.5-0.8,0.7l-0.2-0.1l0.1,0.1
	c-0.2,0.2-0.3,0.4-0.5,0.6c-0.4-0.2-0.9-0.4-1.4-0.4c0.4-0.5,0.7-0.7,0.7-0.7c-0.4,0.2-0.8,0.4-1.1,0.7c-0.8,0-1.4,0.1-1.4,0.1
	c0.5-0.1,0.9-0.1,1.3-0.1c-1.5,1.1-1.9,2.8-2,4.3c-0.3-1.7-0.2-3.7,1.2-5.5c0,0-2.4,2.4-1.9,8.2c-0.2-0.5-0.4-1.1-0.5-1.6
	c0.4-2.1,0.2-3.3-0.2-4.1c0.2-1.7,0.5-3,0.5-3c-0.4,0.9-0.7,1.7-0.9,2.6c-1-1-2.5-0.5-2.5-0.5c1.3-0.2,2.1,0.1,2.4,0.8
	c-0.3,1.6-0.3,3-0.2,4.1c-0.4,1.4-0.9,2.5-0.9,2.5h1.1c0.1-0.2,0.1-0.4,0.2-0.7c0.1,0.4,0.2,0.7,0.2,0.7h3.6
	c-1.9-3.9-0.6-6.5,0.3-7.6c0.6,0.1,1,0.3,1.3,0.5c-1.6,2.2-1,4.5-0.5,5.9c-0.4,0.7-0.7,1.2-0.7,1.2h3.6c0.1-0.2,0.2-0.4,0.3-0.7
	c0.1,0.4,0.1,0.7,0.1,0.7h3.1c0-0.1,0-0.1,0-0.2c0,0.1,0.1,0.2,0.1,0.2h3.5c0,0,0.2-0.9,0.3-2.1c0.2,1.3,0.5,2.1,0.5,2.1h0.9
	C36.6,25,38,20.5,38,20.5z M27.4,21.6c1,1,0.5,2.9-0.1,4.5C26.7,24.2,26.9,22.7,27.4,21.6z M28.3,28.1c-0.1-0.2-0.2-0.3-0.3-0.5
	c1.4-3.7,0.7-5.5-0.4-6.2c0.1-0.2,0.3-0.4,0.4-0.6l1.7,1.2C29.9,25.6,28.9,27.4,28.3,28.1z M35.7,28.2c-0.6-1.2-2.1-5-0.1-8.3
	C36,20.9,37.2,24.6,35.7,28.2z M28.7,20c0.2-0.2,0.5-0.4,0.8-0.5C29.5,19.5,29.2,19.6,28.7,20z M114.4,20.9c0.2-2.5,1.1-4.1,1.8-5
	c-1.3,1.5-2,3.1-2.3,4.7c-0.2,0-0.3-0.1-0.5-0.1c0,0,0,0,0,0c0-1.5-0.2-2.6-0.6-3.4c-0.2-0.8-0.5-1.5-0.8-2.2c0.2,0.4,0.4,1,0.6,1.7
	c-1.3-2.2-3.8-1.2-3.8-1.2c3.4-0.8,4.1,2,3.8,5.3c-0.2,0-0.3,0.1-0.3,0.1c0.1,0,0.2,0,0.3,0c-0.3,3.7-1.9,8-1.9,8h2
	c0,0,0.9-3.8,0.6-8c0.2,0,0.3,0.1,0.4,0.1c-0.4,2.4,0,4.7,0.4,6.2c-0.3,1-0.6,1.6-0.6,1.6h1.1c0-0.1,0-0.1,0-0.2
	c0,0.1,0.1,0.2,0.1,0.2h1.2c-0.3-0.7-0.6-1.5-0.8-2.1C115.9,22.9,115.3,21.5,114.4,20.9z M114.8,24.9c-0.3-1.5-0.5-2.7-0.4-3.9
	C115.2,21.9,115.1,23.4,114.8,24.9z M71.6,22.3c0-1.3,0.1-2.2,0.1-2.2c-0.2,0.4-0.3,0.9-0.4,1.4c-0.9-1.5-2.7-0.8-2.7-0.8
	c1.6-0.3,2.3,0.3,2.6,1.4c-0.2,1.1-0.2,2.3-0.2,3.4c-0.4,1.7-1,3.2-1,3.2H71c0-0.2,0.1-0.3,0.1-0.5c0,0.3,0.1,0.5,0.1,0.5h1.1
	c-0.3-0.9-0.5-2.1-0.5-3.2C71.9,24,71.8,23,71.6,22.3z M107,16.4c-0.4,1.2-0.7,2.7-0.8,4.2c-0.2-1.3-0.6-2.5-1.3-3.6
	c0.7,1.4,1.9,5,0.1,11.6h0.7c0,0,0.2-0.9,0.4-2.2c0.1,1.3,0.2,2.2,0.2,2.2h1.3C106.5,24.3,107,16.4,107,16.4z M103.8,21
	c-0.3-1-0.7-1.4-0.7-1.4l-2-0.9l2,1.6c0.2,3.6-0.4,5.7-1,6.9c0.3-6.3-1.8-8.8-1.8-8.8c2.2,3.7,0.8,8.1,0.2,9.6
	c-0.4-1.4-0.6-3-0.6-4.6c0-0.4,0-0.7,0-1c-0.1-3.1,0.1-5.9,0.1-5.9c-0.4,1-0.7,2.2-0.8,3.4c-0.1-0.2-0.3-0.4-0.3-0.4l-1.6-0.7
	c-0.2-0.4-0.5-0.8-0.8-1c-0.2-0.5-0.4-0.7-0.4-0.7c0.1,0.2,0.2,0.4,0.3,0.7c-1.3-1-3.1-0.4-3.1-0.4c1.9-0.4,2.9,0.2,3.4,1.2
	c0.2,0.6,0.3,1.3,0.4,1.9c0.1,2.9-1.4,7-1.8,7.9c-0.6-0.6-1.8-2.3-1.6-6.5l1.8-1.3l-1.9,0.7c0,0-2.2,2.1,0,7.3h5.1
	c0.1-0.3,0.2-0.5,0.3-0.8c0.1,0.5,0.1,0.8,0.1,0.8h3.9c0.1-0.3,0.2-0.5,0.3-0.8c0,0.3,0,0.5,0.1,0.8h1.4c0,0-0.5-1.3-0.8-3.3
	c0.3-1.8,0.2-3.1-0.1-4c0.1-1,0.4-2,0.9-3C104.8,18.3,104.3,19.1,103.8,21z M97.8,27.3c0.1-1.4,0.1-2.7,0-3.8c0.2-2.1,0-3.5-0.4-4.4
	l1.4,1.2C99,24,98.4,26.2,97.8,27.3z M50.5,20.1c-0.5,1.4-0.7,3.4-0.6,5.1c-0.3-3.8-1.8-5.3-1.8-5.3c2.2,3.1,0.8,7,0.2,8.3
	c-0.4-1.2-0.6-2.6-0.6-4c0-0.3,0-0.6,0-0.9c-0.1-2.7,0.1-5.1,0.1-5.1c-0.4,0.9-0.7,1.9-0.8,2.9c-0.1-0.2-0.3-0.3-0.3-0.3l-2-0.8
	l2,1.4c0.2,3.2-0.4,5-1,6c0.1-1.1,0.1-2.1,0-2.9c0.4-2.6-0.3-3.9-1.3-4.6c-0.2-0.4-0.4-0.6-0.4-0.6c0.1,0.2,0.2,0.3,0.3,0.5
	c-1.3-0.8-3.1-0.3-3.1-0.3c1.9-0.3,2.9,0.1,3.4,0.9c0.2,0.5,0.3,1,0.4,1.5c0.2,2.7-1.9,6.6-1.9,6.6h3.6c0.1-0.2,0.2-0.5,0.3-0.7
	c0.1,0.4,0.1,0.7,0.1,0.7h2.8c0.1-0.7,0.1-1.4,0.1-2c0.1,1.2,0.1,2,0.1,2H51C50.2,25.6,50.5,20.1,50.5,20.1z M134.4,27.9
	c-0.4-1.6-0.6-3.5-0.6-5.5c0-0.4,0-0.8,0-1.2c-0.1-3.7,0.1-7,0.1-7c-0.4,1.2-0.7,2.6-0.8,4c0,0,0-0.1,0-0.1
	c-0.9-4.4-4.4-2.9-4.4-2.9c2.3-0.5,3.4,0.6,3.7,2.3l-1.5-0.8l1.6,1.6c0.3,3.5-1.4,8.6-1.8,9.9c-0.6-0.7-1.8-2.8-1.6-8l1.8-1.6
	l-1.9,0.9c0,0-2.2,2.6,0,9h3.7c0.1-0.3,0.2-0.7,0.3-1c0.1,0.6,0.1,1,0.1,1h2.8c0.8-8.6-1.7-12.1-1.7-12.1
	C136.4,20.9,135,26.1,134.4,27.9z M127.5,20.4c0,0-0.2,0.2-0.4,0.5c-0.2-2.9,0.5-5.4,3.6-4.7c0,0-4.8-2-4.3,6.1
	c-0.1,0.4-0.3,0.8-0.4,1.3c0-2.8-0.1-6.1-1-8.4c0,0,0.2,2.7,0.1,5.9c-0.3-2.5-1.1-4.9-2.9-6.3c0,0,3.5,4.7,1,13.8h2.5
	c0,0,0-0.3,0.1-0.7c0,0.2,0,0.5,0.1,0.7h3c0,0-1.5-4.1-1.8-7.7C127.2,20.7,127.3,20.5,127.5,20.4z M127.4,28.6
	c-0.1-0.2-1.5-2.9-1-5.8C126.6,24.4,126.9,26.3,127.4,28.6z M122.7,16.6c-2,6.4-0.5,12-0.5,12h0.9C121.2,23.3,122.7,16.6,122.7,16.6
	z M118.6,17.9l-1.8-1c0-0.1,0-0.1,0-0.1c0,0,0,0.1,0,0.1l-0.2-0.1l0.2,0.2c-1.2,4.1-0.5,11.6-0.5,11.6h2.3
	C121,21,118.6,17.9,118.6,17.9z M117.2,27.8c-0.7-3.8-0.4-9.6-0.4-10.7l1.8,1.7C118.8,24.1,117.9,26.7,117.2,27.8z M122,15.1
	c0,0-1.2,1.7-1.7,5.8c-0.2-1.9-0.6-3.9-1.5-5.5c0,0,2.1,6.9,0,13.2h1.3c0,0,0-0.2,0.1-0.5c0,0.2,0,0.3,0,0.5h1.9
	C122,28.6,118.9,21.1,122,15.1z M117,15.1c0,0-0.3,0.3-0.8,0.8C116.5,15.6,116.7,15.4,117,15.1z M90.8,20.4c0,0-0.9,1-1.4,3.2
	c0-2.2-0.2-4.6-1-6.3c0,0,0.2,2.3,0.1,5.1c-0.2-1.6-0.7-3.1-1.7-4.3l0.6-0.5l-0.8,0.4c-0.3-0.3-0.6-0.6-1-0.9c0,0,0.3,0.4,0.7,1
	l-1.1,0.5c0,0-0.7,0.8-1,2.5c0.2-1.5,0.4-2.5,0.4-2.5c-0.6,1.5-0.8,3-0.9,4.3c-0.1-1.8-0.5-3.6-1.4-5.1c0.1-0.2,0.2-0.3,0.3-0.5
	c0,0-0.1,0.1-0.3,0.4c0-0.1-0.1-0.1-0.1-0.2c0,0,0,0.1,0.1,0.2c-0.6,1.1-2,4.2-1.6,9.9c-1.6-5.1-0.1-11-0.1-11c-0.7,2-1.1,4-1.2,5.7
	c-0.5-2.7-1.5-3.9-1.5-3.9c2.2,3.7,0.8,8.1,0.2,9.6c-1.1-4.3-0.6-11.5-0.6-11.5c-0.5,1.3-0.8,2.9-1,4.5c-0.1-0.1-0.1-0.2-0.1-0.2
	l-1.6-0.6c0-0.1-0.1-0.1-0.1-0.2c0.2-0.3,0.5-0.5,0.7-0.7c-0.3,0.2-0.5,0.4-0.7,0.6c-1.3-1.8-3.9-1-3.9-1c2.1-0.4,3.1,0.3,3.6,1.3
	c-2.1,2.4-1.6,5.3-1,6.9c-0.3,0.8-0.6,1.4-0.6,1.4h3.6c0.1-0.3,0.2-0.5,0.3-0.7c0,0.5,0.1,0.7,0.1,0.7h2.8c0.1-0.5,0.1-1,0.1-1.5
	c0.2,0.9,0.3,1.5,0.3,1.5h3.5c0,0,0.2-1.1,0.3-2.7c0.2,1.6,0.5,2.7,0.5,2.7H85c-0.6-1.5-0.9-3.1-1-4.6c0.1,1.3,0.5,2.8,1.1,4.6h3.9
	c0,0,0-0.2,0.1-0.6c0,0.2,0,0.4,0.1,0.6h1.6C90.8,28.6,88.2,24,90.8,20.4z M74.4,20.4c0.5,1.4,0,3.5-0.5,5.3
	C73.1,23.3,73.6,21.6,74.4,20.4z M74.8,28.1c-0.1-0.2-0.2-0.4-0.3-0.6c1.1-3.6,0.9-5.8,0.3-7l1.4,1C76.5,25.4,75.5,27.3,74.8,28.1z
	 M82.3,28.1c-0.6-1.5-2.1-6.2-0.1-10.3C82.6,19,83.8,23.6,82.3,28.1z M86.8,27.9c-0.7-1.1-1.8-3.5-1.6-8.6l1.2-1
	C87.2,20,88.1,23.2,86.8,27.9z M75.3,19.4c0.2-0.2,0.5-0.4,0.8-0.6C76.1,18.8,75.7,19,75.3,19.4z M109.2,22.9c0-2-0.4-4.1-1.5-5.9
	c0.7,1.4,1.9,5,0.1,11.6h0.7c0,0,0.3-0.9,0.5-2.3c0.1,1.3,0.3,2.3,0.3,2.3h1.1c-1.8-4,0-8.4,0-8.4C109.8,21,109.4,22,109.2,22.9z
	 M68.1,28.1c-0.4-1.2-0.6-2.6-0.6-4c0-0.3,0-0.6,0-0.8c-0.1-2.7,0.1-5.1,0.1-5.1c-0.4,0.9-0.7,1.9-0.8,2.9c0,0,0,0,0-0.1
	c-0.9-3.2-4.4-2.1-4.4-2.1c2.3-0.4,3.4,0.4,3.7,1.7l-1.5-0.6l1.6,1.2c0.4,2.9-1.9,7.4-1.9,7.4h2.2c0.1-0.2,0.2-0.5,0.3-0.7
	c0.1,0.4,0.1,0.7,0.1,0.7h2.8c0.8-6.3-1.7-8.8-1.7-8.8C70.1,23,68.7,26.8,68.1,28.1z M61.7,21.4c0.3-1.4,1.2-2.3,3.6-1.9
	c0,0-2.6-0.8-3.8,1.2c-0.2-0.5-0.3-0.8-0.3-0.8c0.1,0.3,0.2,0.5,0.2,0.8c-0.6,1.1-0.8,3,0.1,6.3c-0.2,0.9-0.3,1.5-0.3,1.5h2.2
	c0,0-0.8-1.5-1.3-3.3C62.1,23.6,61.9,22.3,61.7,21.4z M61.7,21.6c0.1,0.8,0.2,1.7,0.2,2.5C61.7,23.3,61.6,22.4,61.7,21.6z
	 M18.5,21.4c-0.3-0.6-0.6-1.1-1.1-1.6c0.2,0.3,0.5,0.8,0.8,1.4c-0.3-0.2-0.6-0.4-0.9-0.5c0,0,0.6,0.5,1.2,1.5
	c0.3,1.5,0.2,3.6-0.9,6.5H20C20,28.6,21.4,23.8,18.5,21.4z M18.5,28c0.3-0.9,0.7-2.5,0.5-4.3C19.3,24.8,19.2,26.3,18.5,28z
	 M61.2,20.4c0,0-0.9,1-1.4,3.3c-0.1-1.7-0.3-3.5-1-4.8c0,0,0.2,2,0.1,4.4c-0.3-1.8-1.1-3.6-2.9-4.6c0,0,3.5,3.4,1,10h2.5
	c0,0,0-0.2,0.1-0.6c0,0.2,0,0.4,0.1,0.6h1.6C61.2,28.6,58.6,24,61.2,20.4z M56.4,19.9c-0.6,1.3-0.8,2.6-0.9,3.7
	c-0.1-1.6-0.6-3.3-1.6-4.6c0,0,2.1,5,0,9.6h1.3c0,0,0.2-0.9,0.3-2.3c0.2,1.4,0.5,2.3,0.5,2.3h0.9C54.9,24.8,56.4,19.9,56.4,19.9z
	 M51.4,28.6h0.9c0.4-6.2-0.9-8.7-0.9-8.7C52.8,23.8,51.4,28.6,51.4,28.6z M112,14.9c-0.3-0.6-0.5-0.9-0.5-0.9
	C111.7,14.3,111.9,14.6,112,14.9z M139.8,20.9c0.2-2.5,1.1-4.1,1.8-5c-1.3,1.5-2,3.1-2.3,4.7c-0.2,0-0.3-0.1-0.5-0.1c0,0,0,0,0-0.1
	c0-1.5-0.2-2.6-0.6-3.4c-0.2-0.8-0.5-1.5-0.8-2.2c0.2,0.4,0.4,1,0.6,1.7c-1.3-2.2-3.8-1.2-3.8-1.2c3.4-0.8,4.1,2,3.8,5.3
	c-0.2,0-0.3,0.1-0.3,0.1c0.1,0,0.2,0,0.3,0c-0.3,3.7-1.9,8-1.9,8h2c0,0,0.9-3.8,0.6-8c0.2,0,0.3,0.1,0.4,0.1c-0.4,2.4,0,4.7,0.4,6.2
	c-0.3,1-0.6,1.6-0.6,1.6h1.1c0-0.1,0-0.1,0-0.2c0,0.1,0.1,0.2,0.1,0.2h1.2c-0.3-0.7-0.6-1.5-0.8-2.1
	C141.3,22.9,140.7,21.5,139.8,20.9z M140.2,24.9c-0.3-1.5-0.5-2.7-0.4-3.9C140.6,21.9,140.5,23.4,140.2,24.9z M158.4,16.1
	c0,0-2.6-1.1-3.8,1.7l-0.2,0.1c0,0-2.4,3.1,0,10.7h2.2c0,0-2.4-6.7-1.7-10.3l1.4-1.4l-1.2,0.6C155.6,16.3,156.6,15.7,158.4,16.1z
	 M148.1,16.6c-2,6.4-0.4,12-0.4,12h0.9C146.6,23.3,148.1,16.6,148.1,16.6z M144,17.9l-1.8-1c0-0.1,0-0.1,0-0.1c0,0,0,0.1,0,0.1
	l-0.2-0.1l0.2,0.2c-1.2,4.1-0.5,11.6-0.5,11.6h2.3C146.4,21,144,17.9,144,17.9z M142.6,27.8c-0.7-3.8-0.4-9.6-0.4-10.7l1.8,1.7
	C144.2,24.1,143.3,26.7,142.6,27.8z M147.4,15.1c0,0-1.2,1.7-1.7,5.7c-0.2-1.9-0.6-3.9-1.5-5.5c0,0,2.1,6.9,0,13.2h1.3
	c0,0,0-0.2,0.1-0.5c0,0.2,0,0.3,0,0.5h1.9C147.4,28.6,144.3,21.1,147.4,15.1z M142.4,15.1c0,0-0.3,0.3-0.8,0.8
	C141.8,15.6,142.1,15.4,142.4,15.1z M137.4,14.9c-0.3-0.6-0.5-0.8-0.5-0.8C137.1,14.3,137.2,14.6,137.4,14.9z M107.8,17
	c-0.3-0.5-0.5-0.7-0.5-0.7C107.5,16.5,107.6,16.7,107.8,17z M104.9,17c-0.3-0.5-0.5-0.7-0.5-0.7C104.7,16.5,104.8,16.7,104.9,17z
	 M91.7,19.1c0.5-0.9,1.5-1.4,3.2-1c0,0-2-0.7-3.3,0.7c-0.2-0.6-0.5-1.2-0.8-1.7c0.2,0.4,0.5,1,0.7,1.8c-0.9,1.1-1.4,3.5-0.2,8.3
	c-0.1,0.5-0.2,0.9-0.3,1.4h0.7c0,0,0,0,0-0.1c0,0,0,0,0,0.1h1.4c0,0-0.5-1.1-0.9-2.7C92.4,24.1,92.5,21.5,91.7,19.1z M91.7,24.5
	c-0.4-1.8-0.7-3.9-0.1-5.2C91.9,20.6,92,22.3,91.7,24.5z M90.8,17c-0.3-0.5-0.5-0.7-0.5-0.7C90.5,16.5,90.7,16.7,90.8,17z
	 M53.5,19.5l-1.2-0.9l1.2,1.7c0.2,6.8-1.2,8.4-1.2,8.4h1.2C55,22.1,53.5,19.5,53.5,19.5z M16.9,19.2c0.2,0.2,0.4,0.4,0.5,0.5
	C17.1,19.4,16.9,19.2,16.9,19.2z M306.4,22c0.4-0.7,1.1-1.1,2.4-0.8c0,0-1.5-0.5-2.5,0.5c-0.2-0.8-0.5-1.7-0.9-2.6
	c0,0,0.4,1.2,0.5,3c-0.4,0.7-0.6,2-0.2,4.1c-0.1,0.5-0.3,1.1-0.5,1.6c0.5-5.8-1.9-8.2-1.9-8.2c1.4,1.8,1.5,3.8,1.2,5.5
	c-0.1-1.5-0.6-3.1-2-4.3c0.4,0,0.8,0,1.3,0.1c0,0-0.6-0.1-1.4-0.1c-0.3-0.2-0.7-0.5-1.1-0.7c0,0,0.3,0.2,0.7,0.7
	c-0.4,0-0.8,0.1-1.2,0.3c-0.2-0.8-0.4-1.6-0.8-2.3c0,0,0.1,1.2,0.1,2.7c-0.1,0.1-0.3,0.3-0.4,0.4c-0.3-0.5-0.6-0.9-1-1.4l0.1-0.1
	l-0.2,0.1c-0.2-0.2-0.5-0.5-0.8-0.7c0.2,0.2,0.5,0.4,0.7,0.7l-1.7,0.6c0,0-2.4,2.1,0,7.2h2.3c0,0,0,0,0-0.1c0,0,0,0,0,0.1h2.7
	c0,0-0.5-0.8-1-1.8c0.1-1.4,0.2-3.5-0.2-5.4c0.3-0.2,0.7-0.4,1.3-0.5c0.9,1.2,2.2,3.8,0.3,7.6h3.6c0,0,0.1-0.2,0.2-0.7
	c0.1,0.2,0.1,0.4,0.2,0.7h1.1c0,0-0.5-1.1-0.9-2.5C306.7,25,306.7,23.6,306.4,22z M299.4,25.6c-0.2,0.8-0.6,1.6-1.1,2.6
	c-0.6-0.7-1.6-2.5-1.4-6.2l1.7-1.2c0.4,0.5,0.7,1,0.9,1.8C299.2,23.3,299.1,24.2,299.4,25.6z M300.1,22.9c0-0.1-0.1-0.1-0.1-0.2
	c0-0.1,0.1-0.2,0.1-0.4C300.1,22.6,300.1,22.7,300.1,22.9z M328,20.9c0,0-1.5,0.5-2.9,2.2c-0.3-1.2-1-2.4-2.2-3.3
	c0,0,0.9,1.3,1.3,3.1c-0.5-0.6-1.4-1.2-2.5-1.8c-0.2-0.4-0.5-0.7-0.8-1.1c0.3-0.5,0.4-0.8,0.4-0.8c-0.2,0.2-0.4,0.4-0.6,0.6
	c-0.2-0.2-0.4-0.4-0.6-0.6c0,0,0.2,0.3,0.4,0.8c-0.6,0.6-1,1.3-1.3,2.1c-0.3-0.6-0.6-1.3-1.1-1.9c0,0,0.1,0.3,0.3,0.7
	c-0.2,0-1.2-0.2-2.3-0.1c-0.2-0.2-0.3-0.2-0.3-0.2c0.1,0.1,0.2,0.2,0.2,0.2c-0.5,0.1-1,0.2-1.5,0.5c0.9-1.6,2.4-2.4,2.4-2.4
	c-2.5,0.8-3.8,2.1-4.5,3.5c0-0.5,0-0.9,0-1.5l2.3-1.5l-2.3,0.8c0,0-1.1,0.9-1.2,3.1c0-1.4,0.4-2.8,1.4-4.2c0,0-2.8,2.7-1.9,9.5h8.2
	c0,0,0.1-0.2,0.2-0.4c0.1,0.3,0.1,0.4,0.1,0.4h5.7c0,0,0.9-2.4,0.4-5C325.8,22.6,326.6,21.5,328,20.9z M315.9,28.3
	c-0.9-1.3-4.2-6.7,0.1-7.5C319.1,23.9,316.7,27.4,315.9,28.3z M318.6,26.1c0,0.1-0.1,0.3-0.1,0.4c0-3.2-1.6-5-2.4-5.6
	c0.6-0.1,1.3-0.1,2.3,0c0.2,0.5,0.4,1.2,0.5,2.1C318.5,24,318.5,25.1,318.6,26.1z M320.6,20.4c0,0.1,0.1,0.2,0.1,0.3
	c-0.1,0-0.2-0.1-0.2-0.1C320.5,20.5,320.6,20.4,320.6,20.4z M320.6,27.6c-1.5-2.7-0.8-5.5-0.1-7c0.1,0,0.2,0.1,0.2,0.1
	C321.4,22.3,322.1,24.9,320.6,27.6z M324,24.8c-0.2,0.5-0.4,1-0.6,1.6c-0.3,0.5-0.7,1-1.2,1.6c0.3-1.2,1-4.4-0.6-7
	C322.8,21.7,324.3,22.9,324,24.8z M271.4,20.4c0,0-2.4,2.3-1.7,8.2h1.7C271.4,28.6,268.7,24.1,271.4,20.4z M284.6,22
	c0.6-1.8,1.6-2.7,1.6-2.7c-0.9,0.4-1.5,1.1-2,1.8c-0.2-0.4-0.4-0.6-0.4-0.6l-2.2-0.8l2.2,1.5c0,0.3,0,0.5,0,0.7
	c-0.3,0.7-0.5,1.4-0.5,2c-0.2-1.3-0.7-1.9-0.9-2.1c-0.5-1.5-1.8-1.8-2.8-1.8c0.1-0.1,0.1-0.3,0.2-0.4c0,0,0.1,0,0.1,0c0,0,0,0-0.1,0
	c0-0.1,0.1-0.1,0.1-0.2c0,0-0.1,0.1-0.1,0.2c-0.5-0.1-2.1-0.4-3.2,0.5c-0.1-0.4-0.3-0.8-0.5-1.2c0,0,0.1,0.6,0.1,1.5
	c-0.2,0.2-0.3,0.4-0.4,0.7c-0.6-0.1-1.5,0-2,1.1c-0.1-0.5-0.2-1-0.4-1.5l0.2-0.1l-0.2,0.1c0,0,0,0,0-0.1c0,0,0,0,0,0.1l-1.8,0.6
	c0,0-2.4,2.1,0,7.2h2.2c0,0,0-0.4,0.1-1c0.1,0.3,0.1,0.6,0.2,1h0.9c0,0-0.8-2-1.1-4c0-0.5,0-1-0.1-1.4c0.1-1.2,0.5-2.1,1.9-2
	c-0.5,1.1-0.6,2.8,0.1,5.5c-0.1,0.7-0.3,1.4-0.5,2h2.7c0,0-0.5-0.9-0.9-2.1c0.1-1.7,0.2-4.1-0.4-6.2c0.5-0.7,1.5-1,3.1-0.8
	c-0.1,0.1-0.2,0.2-0.3,0.4c-0.7,0-1.2,0.1-1.2,0.1c0.4-0.1,0.8-0.1,1.2-0.1c-0.6,1.1-1.7,3.8-1.2,8.5h1.6c0,0-2.3-4.6-0.4-8.5
	c1.3,0.1,2,0.7,2.2,1.5l-1.3-0.5l1.4,1c0.4,2.5-1.8,6.5-1.8,6.5h5.1c-0.3-0.7-0.5-1.4-0.7-2.1C285.1,24.4,284.9,22.9,284.6,22z
	 M272.9,28.1c-0.6-0.8-1.6-2.5-1.4-6.2l1.8-1.2C273.3,21.5,273.5,25.5,272.9,28.1z M276.1,23.6c-0.1-0.8-0.2-1.6,0-2.3
	C276.1,22,276.1,22.7,276.1,23.6z M282.9,26.8c0.1-0.3,0.2-0.6,0.2-0.9c0,0.1,0,0.2,0,0.3C283,26.5,283,26.6,282.9,26.8z M297.9,20
	c-0.4-0.4-0.8-0.5-0.8-0.5C297.4,19.6,297.6,19.8,297.9,20z M296.8,20.4c0,0-1,0.9-1.5,3.1c-0.1-1.4-0.4-2.9-1.2-4.6
	c0,0,1.5,4.7-0.1,8.8c0.4-4.6-1-7-1.6-7.9c0-0.1,0.1-0.2,0.1-0.2c0,0-0.1,0.1-0.1,0.2c-0.2-0.2-0.3-0.4-0.3-0.4
	c0.1,0.1,0.2,0.3,0.3,0.4c-0.9,1.2-1.3,2.7-1.4,4.1c-0.1-1.1-0.4-2.2-0.9-3.5c0,0,1.4,4.4-0.4,7.9c-1.2-3.2-0.6-8.9-0.6-8.9
	c-0.7,1.3-0.9,2.9-1,4.5c-0.5-2.1-1.4-3.1-1.4-3.1c2.5,3.4,0,7.7,0,7.7h1.6c0-0.2,0-0.4,0.1-0.6c0,0.4,0.1,0.6,0.1,0.6h2.1
	c0,0,0.3-0.8,0.5-2.1c0.1,1.3,0.3,2.1,0.3,2.1h3.5c0,0,0.2-0.4,0.3-1.2c0,0.4,0.1,0.8,0.1,1.2h1.7C296.8,28.6,294.1,24.1,296.8,20.4
	z M292.3,28.2c-1.5-3.5-0.3-7.3,0.1-8.3C294.4,23.2,292.9,26.9,292.3,28.2z M286.5,19.3c0.1-0.2,0.3-0.4,0.5-0.6
	C287,18.7,286.8,18.9,286.5,19.3z M285.7,28.6h0.7c-1.8-5.3-0.6-8.2,0.1-9.3C283.8,23.1,285.7,28.6,285.7,28.6z M249.8,22
	c0.3-1,1-1.7,2.6-1.4c0,0-1.8-0.6-2.7,0.8c-0.1-0.5-0.2-1-0.4-1.4c0,0,0.1,0.9,0.1,2.2c-0.2,0.7-0.3,1.7-0.1,3.1
	c-0.1,1.2-0.2,2.3-0.5,3.2h1.1c0,0,0-0.2,0.1-0.5c0,0.2,0.1,0.3,0.1,0.5h1.1c0,0-0.6-1.5-1-3.2C250,24.4,250,23.2,249.8,22z
	 M224.6,28.6h1.6c0,0-2.6-5.5,0-9.9C226.2,18.7,223.9,21.5,224.6,28.6z M188.2,18.4c0,0-2.4,2.9-1.7,10.2h1.7
	C188.2,28.6,185.5,22.9,188.2,18.4z M190.5,18.3c0.6-0.9,1.6-1.3,3.3-1c0,0-2-0.7-3.4,0.6c-0.1-0.5-0.3-1-0.5-1.5
	c0,0,0.1,0.8,0.1,1.9c-0.1,0.1-0.2,0.3-0.3,0.4l-1.6,0.7c0,0-2.4,2.6,0,9h3.6c0,0-0.5-1.1-0.9-2.6C191.1,23.9,191.1,20.9,190.5,18.3
	z M189.5,27.6c-0.6-1.1-1.4-3.3-1.2-7.4l1.4-1.2c-0.5,1.3-0.7,3.5,0.1,7C189.7,26.7,189.6,27.2,189.5,27.6z M190,22.3
	c-0.1-1-0.2-2,0-2.8C190.1,20.3,190.1,21.3,190,22.3z M195.4,22.4c0.3-3.6,1.9-5.4,1.9-5.4c-1.2,0.8-2,2-2.4,3.3
	c-0.9-3.3-4.1-2.2-4.1-2.2c2.8-0.5,3.6,1,3.6,3.1l-1.5-0.6l1.5,1.1c-0.1,3.1-1.8,7-1.8,7h3.7c-0.3-1-0.5-1.8-0.7-2.7
	C195.9,24.3,195.7,23.1,195.4,22.4z M199.7,18.5c0,0,1.4,5.5-0.4,9.9c-1.2-4-0.6-11.1-0.6-11.1c-0.8,1.8-1,4.2-1,6.3
	c-0.5-2.2-1.4-3.2-1.4-3.2c2.5,3.7,0,8.2,0,8.2h1.6c0-0.2,0-0.4,0.1-0.7c0,0.4,0.1,0.7,0.1,0.7h2.1
	C200.1,28.6,201.7,23.9,199.7,18.5z M203.6,17.4c-0.9,1.3-1.3,3-1.5,4.6c-0.5-3.4-1.7-4.9-1.7-4.9c3,5.1,0,11.4,0,11.4h1.9
	c0-0.2,0-0.3,0-0.4c0,0.3,0.1,0.4,0.1,0.4h1.3C201.5,23.3,203.6,17.4,203.6,17.4z M204.7,17.9c-0.4-0.5-0.8-0.7-0.8-0.7
	C204.2,17.4,204.5,17.6,204.7,17.9z M205.7,18.9c0.5-1.2,1.5-2,3.6-1.5c0,0-2.6-0.9-3.9,1.2c-0.2-0.3-0.4-0.5-0.7-0.7
	c0.2,0.2,0.4,0.5,0.7,0.8c0,0.1-0.1,0.1-0.1,0.2l-1.6,0.7c0,0-2.4,2.6,0,9h3.6c0,0-0.3-0.7-0.6-1.6C207.4,25,207.9,21.7,205.7,18.9z
	 M205.2,28c-0.6-0.9-1.6-3.1-1.4-7.7l1.4-1.2c-0.6,1.5-0.7,3.9,0.3,8.2C205.4,27.5,205.3,27.8,205.2,28z M206.2,25.2
	c-0.6-2-1-4.5-0.5-6.1C206.4,20.4,206.9,22.4,206.2,25.2z M220.6,18.4c0,0-1.2,1.5-1.7,5c-0.2-2.2-0.7-3.6-1-4.4l0.5-0.4l-0.6,0.3
	c-0.2-0.4-0.3-0.6-0.3-0.6c0.1,0.2,0.2,0.4,0.3,0.6l-1.4,0.6c0,0-0.1,0.2-0.3,0.5c-0.1-1.3-0.4-2.6-0.8-3.6c0,0,0.2,2.8,0.1,5.9
	c0,0.4-0.1,0.9-0.1,1.4c-0.1,1.8-0.3,3.5-0.7,4.9h1.3c0,0,0-0.4,0.1-1c0.1,0.3,0.2,0.7,0.4,1h2.5c0,0,0,0,0,0c0,0,0,0,0,0h1.7
	C220.6,28.6,217.9,22.9,220.6,18.4z M217.8,27.9c-0.6-1-1.5-3.2-1.3-7.6l1.4-1.2C219.2,22.5,218.3,26.3,217.8,27.9z M223,18.3
	c0.6-0.9,1.6-1.3,3.3-1c0,0-2-0.7-3.4,0.6c-0.1-0.5-0.3-1-0.5-1.5c0,0,0.1,0.8,0.1,1.9c-0.1,0.1-0.2,0.3-0.3,0.4l-1.6,0.7
	c0,0-2.4,2.6,0,9h3.6c0,0-0.5-1.1-0.9-2.6C223.5,23.9,223.5,20.9,223,18.3z M221.9,27.6c-0.6-1.1-1.4-3.3-1.2-7.4l1.4-1.2
	c-0.5,1.3-0.7,3.5,0.1,7C222.1,26.7,222,27.2,221.9,27.6z M222.5,22.3c-0.1-1-0.2-2,0-2.9C222.5,20.3,222.5,21.3,222.5,22.3z
	 M231,21.5c0.6-1.9,1.6-2.9,1.6-2.9c-0.9,0.5-1.5,1.1-2,1.9c-0.2-0.4-0.4-0.6-0.4-0.6l-1.9-0.7c-1.2-2-3.7-1.1-3.7-1.1
	c2.8-0.5,3.6,1,3.6,3.1l-1.5-0.6l1.5,1.1c-0.1,3.1-1.8,7-1.8,7h5.1c-0.3-0.8-0.5-1.5-0.7-2.2C231.5,24.1,231.3,22.5,231,21.5z
	 M229.3,26.7c0.1-0.3,0.2-0.6,0.2-0.9c0,0.1,0,0.3,0,0.4C229.4,26.3,229.4,26.5,229.3,26.7z M229.6,23.6c-0.1-0.9-0.4-1.6-0.6-1.9
	c-0.1-1-0.3-1.7-0.5-2.3l1.7,1.2c0,0.3,0,0.5,0,0.8C229.8,22.1,229.7,22.9,229.6,23.6z M244.2,19.4c-0.4-0.4-0.8-0.6-0.8-0.6
	C243.7,19,244,19.2,244.2,19.4z M243.2,19.8c0,0-1,1-1.5,3.3c-0.1-1.5-0.4-3.1-1.2-4.9c0,0,1.5,5.1-0.1,9.4c0.4-4.9-1-7.5-1.6-8.5
	c0-0.1,0.1-0.2,0.1-0.2c0,0.1-0.1,0.1-0.1,0.2c-0.2-0.3-0.3-0.4-0.3-0.4c0.1,0.1,0.2,0.3,0.3,0.4c-0.9,1.3-1.3,2.9-1.4,4.4
	c-0.1-1.1-0.4-2.4-0.9-3.7c0,0,1.4,4.7-0.4,8.5c-1.2-3.5-0.6-9.5-0.6-9.5c-0.7,1.3-0.9,3.1-1,4.8c-0.5-2.3-1.4-3.3-1.4-3.3
	c2.5,3.7,0,8.2,0,8.2h1.6c0-0.2,0-0.4,0.1-0.6c0,0.4,0.1,0.6,0.1,0.6h2.1c0,0,0.3-0.9,0.5-2.3c0.1,1.4,0.3,2.3,0.3,2.3h3.5
	c0,0,0.2-0.5,0.3-1.3c0,0.4,0.1,0.8,0.1,1.3h1.7C243.2,28.6,240.5,23.7,243.2,19.8z M238.7,28.2c-1.5-3.8-0.3-7.8,0.1-8.9
	C240.8,22.8,239.3,26.8,238.7,28.2z M246.9,19.8c0.6-0.7,1.6-1.1,3.3-0.8c0,0-2-0.6-3.4,0.5c-0.1-0.4-0.3-0.9-0.5-1.3
	c0,0,0.1,0.6,0.1,1.6c-0.3,0.3-0.5,0.7-0.6,1.2c-0.2-0.3-0.5-0.6-0.7-0.9l0.1-0.1l-0.2,0.1c-0.2-0.3-0.5-0.5-0.8-0.8
	c0.2,0.2,0.5,0.5,0.7,0.8l-1.7,0.7c0,0-2.4,2.3,0,7.8h2.3c0,0,0,0,0-0.1c0,0,0,0,0,0.1h2.7c0,0-0.5-0.9-0.9-2.2
	C247.5,24.6,247.5,21.9,246.9,19.8z M244.7,28.1c-0.6-0.8-1.6-2.7-1.4-6.6l1.7-1.2c0.3,0.4,0.5,0.8,0.7,1.4c-0.2,0.9-0.1,2,0.1,3.5
	C245.7,26,245.3,27,244.7,28.1z M246.5,22.5c0-0.1-0.1-0.2-0.1-0.3c0-0.5,0-1,0.1-1.4C246.5,21.3,246.5,21.9,246.5,22.5z
	 M253.1,19.8c0,0-2.4,2.5-1.7,8.8h1.7C253.1,28.6,250.4,23.7,253.1,19.8z M255.4,19.8c0.6-0.7,1.6-1.1,3.3-0.8c0,0-2-0.6-3.4,0.5
	c-0.1-0.4-0.3-0.9-0.5-1.3c0,0,0.1,0.6,0.1,1.6c-0.1,0.1-0.2,0.2-0.3,0.4l-1.6,0.6c0,0-2.4,2.3,0,7.8h3.6c0,0-0.5-0.9-0.9-2.2
	C255.9,24.6,256,21.9,255.4,19.8z M254.3,27.8c-0.6-0.9-1.4-2.8-1.2-6.3l1.4-1c-0.5,1.1-0.7,3,0.1,6
	C254.5,26.9,254.5,27.4,254.3,27.8z M254.9,23.2c-0.1-0.9-0.2-1.7,0-2.4C255,21.5,255,22.3,254.9,23.2z M259.5,20.7
	c0.6-1.4,1.3-2.2,1.3-2.2c-0.8,0.4-1.3,0.9-1.8,1.6c-1.3-1.3-3.4-0.6-3.4-0.6c1.7-0.3,2.7,0.1,3.2,0.9c-1.5,2.4-1.2,5.7-0.9,7.3
	c-0.2,0.6-0.4,0.9-0.4,0.9h2.3c-0.2-0.5-0.3-0.9-0.5-1.4C260.3,23.8,260.1,21.9,259.5,20.7z M258.9,24.9c-0.1-1.4,0.1-2.5,0.3-3.5
	C259.4,22.4,259.2,23.7,258.9,24.9z M262.2,18.8c-0.7,1.3-0.9,3.1-1,4.8c-0.5-2.3-1.4-3.3-1.4-3.3c2.5,3.7,0,8.2,0,8.2h1.6
	c0-0.2,0-0.4,0.1-0.6c0,0.4,0.1,0.6,0.1,0.6h1.4C261.6,25.2,262.2,18.8,262.2,18.8z M267.1,19.7c-1,1.2-1.4,2.8-1.6,4.3
	c-0.1-1.1-0.4-2.2-0.9-3.5c0,0,1.4,4.5-0.5,8.1h0.9c0,0,0.3-0.8,0.5-2.1c0.1,1.3,0.3,2.1,0.3,2.1h1.3
	C265,24.3,267.1,19.7,267.1,19.7z M263.1,28.6h0.9c0,0-1.4-4.5,0-8.1C263.9,20.5,262.7,22.8,263.1,28.6z M268.7,28.6h0.9
	c0,0-1.4-4.5,0-8.1C269.6,20.5,268.3,22.8,268.7,28.6z M211.8,17c0.1-0.2,0.3-0.5,0.5-0.7C212.2,16.3,212,16.5,211.8,17z
	 M210.5,20.5c-0.5,0-1.2,0.2-1.6,0.8c-0.1-1-0.3-1.9-0.6-2.6c0,0,0.1,1.6,0.1,3.6c-0.2,0.7-0.3,1.6-0.1,2.9
	c-0.1,1.2-0.2,2.5-0.5,3.4h1.1c0,0,0-0.2,0-0.5c0,0.2,0.1,0.3,0.1,0.5h1.1c0,0-0.6-1.5-1-3.2c0-1.1,0-2.4-0.1-3.7
	C209.2,21.1,209.7,20.7,210.5,20.5c-0.7,4.1,0.4,8.1,0.4,8.1h0.7c-0.9-3.5-1.1-6.1-0.9-8c0.2,0,0.4,0,0.7,0.1c0,0-0.3-0.1-0.7-0.1
	c0.2-1.7,0.6-2.9,1-3.6C211.1,18.1,210.7,19.3,210.5,20.5z M185.3,20.6c0.2,0,0.5,0,0.7,0.1C186.1,20.7,185.8,20.6,185.3,20.6
	c0.1-2.9,0.6-4.8,1.1-5.7c-0.9,1.7-1.3,3.7-1.4,5.7c-0.4,0-1,0.2-1.4,0.6c-0.1-1.6-0.3-3.1-0.7-4.3c0,0,0.1,2.5,0.1,5.5
	c-0.2,0.6-0.2,1.5-0.1,2.6c-0.1,1.3-0.2,2.6-0.5,3.7h1.1c0,0,0-0.2,0-0.5c0,0.2,0.1,0.3,0.1,0.5h1.1c0,0-0.6-1.5-1-3.3
	c0-1.1,0-2.4,0-3.8c0.2-0.5,0.7-0.9,1.3-1c-0.3,4.2,0.6,8,0.6,8h0.7C185.5,25.3,185.3,22.7,185.3,20.6z M154.3,16.6
	c0,0-2.3,3.3-1.7,11.6c-0.6-1.3-1.8-4.8,0.2-7.8c0,0-0.9,1-1.4,3.2c0-2.8-0.1-6.1-1-8.4c0,0,0.2,2.7,0.1,5.9
	c-0.3-2.5-1.1-4.9-2.9-6.3c0,0,3.5,4.7,1,13.8h2.5c0,0,0-0.3,0.1-0.7c0,0.2,0,0.5,0.1,0.7h3C154.3,28.6,151.6,21.9,154.3,16.6z
	 M162.9,16c-0.4-0.4-0.8-0.6-1.2-0.8c0.3,0,0.7,0,1.1,0.1c0,0-0.7-0.3-1.6-0.2c-0.9-0.1-1.6,0.2-1.6,0.2c0.4-0.1,0.8-0.1,1.1-0.1
	c-0.5,0.1-0.9,0.4-1.3,0.8c-0.1-0.6-0.3-1.2-0.5-1.7c0,0,0.1,0.9,0.1,2.3c-0.8,1.4-1.2,4.1-0.3,9.1c-0.1,1.1-0.3,2.1-0.5,2.9h2.7
	c0,0-0.5-1.3-0.9-3c0.1-2.5,0.2-6.1-0.4-9.1c0.4-0.6,0.9-1.1,1.7-1.2c0.5,0.1,1,0.3,1.3,0.7c-0.8,0-1.4,0.2-1.4,0.2
	c0.6-0.1,1-0.2,1.5-0.1c2.4,2.9-1.1,12.6-1.1,12.6h2.8C166.8,18.6,164.7,16.3,162.9,16z M159,21.1c-0.1-1.2-0.2-2.4,0-3.3
	C159,18.8,159,19.9,159,21.1z M163.2,28c1.6-7.1,1-10.4-0.1-11.8C166.4,17.4,164,25.6,163.2,28z M174.3,16.6c0,0,1.4,6.4-0.4,11.6
	c-1.2-4.8-0.6-13.1-0.6-13.1c-0.8,2.3-1,5.7-1,8.4c-0.5-2.2-1.4-3.2-1.4-3.2c2.1,3,0.8,6.5,0.2,7.8c0.6-7.3-1.2-10.8-1.6-11.5
	c0.5-1.2,0.9-1.9,0.9-1.9c-1.8,1.3-2.6,3.7-2.9,6.2c-0.1-3.6,0.1-6.7,0.1-6.7c-0.4,1.2-0.7,2.6-0.8,4.1c-0.1-0.3-0.3-0.4-0.3-0.4
	l-2-1.1l2,1.9c0.3,7.9-2,9.8-2,9.8h2c0.1-0.3,0.2-0.6,0.3-1c0.1,0.6,0.1,1,0.1,1h5.5c0-0.2,0-0.5,0.1-0.7c0,0.4,0.1,0.7,0.1,0.7h2.1
	C174.7,28.6,176.3,23,174.3,16.6z M169.5,28.6c-1.6-5.7-0.8-9.7,0.1-11.8C172,21.8,169.7,28,169.5,28.6z M178.2,15.4
	c-0.9,1.6-1.3,3.5-1.5,5.5c-0.5-4-1.7-5.7-1.7-5.7c3,6,0,13.5,0,13.5h1.9c0-0.2,0-0.4,0-0.5c0,0.3,0.1,0.5,0.1,0.5h1.3
	C176.1,22.3,178.2,15.4,178.2,15.4z M180.3,17.2c0.5-1.5,1.5-2.3,3.6-1.8c0,0-2.6-1.1-3.9,1.4c-0.2-0.3-0.4-0.6-0.7-0.9
	c0.2,0.3,0.4,0.6,0.7,1c0,0.1-0.1,0.1-0.1,0.2l-1.6,0.8c0,0-2.4,3.1,0,10.7h3.6c0,0-0.3-0.8-0.6-1.9C182,24.4,182.5,20.5,180.3,17.2
	z M179.8,27.9c-0.6-1.1-1.6-3.7-1.4-9.1l1.4-1.4c-0.6,1.7-0.7,4.7,0.3,9.7C180,27.3,179.9,27.6,179.8,27.9z M180.8,24.6
	c-0.6-2.4-1-5.3-0.5-7.2C181,18.9,181.5,21.3,180.8,24.6z M178.6,15.1c0.3,0.3,0.5,0.5,0.8,0.8C178.9,15.4,178.6,15.1,178.6,15.1z
	 M186.4,14.9c0.1-0.3,0.3-0.6,0.5-0.8C186.8,14,186.6,14.3,186.4,14.9z M214.6,17c0.1-0.2,0.3-0.5,0.5-0.7
	C215,16.3,214.8,16.5,214.6,17z M213.1,22.9c-0.2-1-0.6-1.9-1.2-2.7c0,0,1.8,4.4,0,8.4h1.1c0,0,0.2-0.9,0.3-2.3
	c0.2,1.4,0.5,2.3,0.5,2.3h0.7c-1.8-6.6-0.6-10.2,0.1-11.6C213.5,18.8,213.2,21,213.1,22.9z M232.9,18.6c0.1-0.2,0.3-0.4,0.5-0.6
	C233.4,18,233.2,18.2,232.9,18.6z M232.1,28.6h0.7c-1.8-5.7-0.6-8.8,0.1-10C230.2,22.7,232.1,28.6,232.1,28.6z M268.6,19.2l-1.2,0.9
	c0,0-1.4,2.5,0,8.5h1.2c0,0-1.4-1.5-1.2-7.8L268.6,19.2z M310.6,19.8c0.2-0.2,0.3-0.4,0.5-0.5C311.1,19.2,310.9,19.4,310.6,19.8z
	 M309.9,20.9c0.1-0.1,0.2-0.2,0.2-0.2C310.1,20.7,310,20.7,309.9,20.9c0.2-0.5,0.5-0.8,0.6-1.1c-0.3,0.3-0.6,0.7-0.8,1.1
	c-4.1,2.1-2.4,7.7-2.4,7.7h1.7c-2-4-0.3-6.5,0.5-7.5c-1.7,3.4,0,7.5,0,7.5h0.8C308.9,24.8,309.3,22.3,309.9,20.9z"/>
<linearGradient id="SVGID_8_" gradientUnits="userSpaceOnUse" x1="164" y1="18.5396" x2="164" y2="28.6063">
	<stop  offset="0" style="stop-color:#C0E568"/>
	<stop  offset="0.144" style="stop-color:#9FCA4B"/>
	<stop  offset="0.4601" style="stop-color:#4B8401"/>
	<stop  offset="0.4663" style="stop-color:#498300"/>
	<stop  offset="1" style="stop-color:#0D2F07"/>
</linearGradient>
<path class="st7" d="M5.3,18.7c9.2-1.3,2.4,9.9,2.4,9.9h1.9C14.5,16.4,5.3,18.7,5.3,18.7z M13,22.4c2.5,2.5,0.4,5.7,0,6.1
	c-1.3-2.6-0.7-7.3-0.7-7.3c-1.8,2.6-0.8,7.3-0.8,7.3h3.1C15.4,24.2,13,22.4,13,22.4z M8.7,22.2c0,0-1.1-0.2-2.2,0
	c-0.4-0.5-0.9-1.1-1.5-1.5c0.4,0.3,0.9,0.9,1.2,1.6c-0.7,0.2-1.4,0.6-1.7,1.5c0-4.4-3.6-3.3-3.6-3.3c5-0.9,2.4,5.9,1.7,7.7
	c0.2-0.9,0.3-3-1.5-3.8c0,0,1.8,1.4,0.5,4.2h1.9c0.4-1.3,0.6-2.3,0.8-3.3c0.1,0.8,0.4,1.8,0.9,3c-0.1,0.1-0.1,0.2-0.1,0.2h1.7
	c0,0-0.1-0.2-0.3-0.5c0.5-1,1.5-3.6,0-5.9C7.1,22.1,7.8,22.1,8.7,22.2z M6,27.1c-0.8-1.6-1.7-4.1,0.3-4.8C6.8,23.4,6.9,25,6,27.1z
	 M5,20.6c-0.4-0.3-0.7-0.5-0.7-0.5C4.5,20.3,4.8,20.5,5,20.6z M325.4,28.2c-0.7-1.8-3.3-8.6,1.7-7.7c0,0-3.5-1.2-3.6,3.3
	c-0.3-1-1.2-1.4-2.1-1.6c0.3-1.4,1-2.4,1.6-2.9c-1,0.9-1.6,1.9-2,2.9c-0.9-0.1-1.7,0.1-1.7,0.1c0.7-0.1,1.2-0.1,1.7,0
	c-0.8,2.5,0,4.9,0.5,5.9c-0.2,0.3-0.3,0.5-0.3,0.5h1.4v0h0.2c0-0.1-0.1-0.2-0.1-0.3c0.5-1.2,0.8-2.2,0.9-3c0.1,0.9,0.4,2,0.8,3.3
	h1.9c-1.3-2.8,0.5-4.2,0.5-4.2C325,25.2,325.2,27.3,325.4,28.2z M322.1,27c-0.8-2-0.9-3.6-0.7-4.8C323.8,22.8,323,25.3,322.1,27z
	 M316.5,23.3c0.2-1.1,1.2-1.8,3.8-1.5c0,0-2.7-0.6-4,0.9c-0.2-0.5-0.4-1-0.7-1.4c0,0,0.1,1.1,0.1,2.5c-0.1,0.4-0.1,0.8,0,1.3
	c0,0.6-0.1,1.2-0.3,1.8c-0.4-0.9-0.7-2.3-0.7-4.3c0.1-0.1,0.1-0.2,0.2-0.2c0,0-0.1,0.1-0.2,0.2c0-0.3,0-0.5,0-0.8l2-1.3l-2,0.7
	c0,0-1,0.9-1,2.9c-0.4,1-0.8,2.5-0.4,4.5h3.4c0,0-0.1-0.1-0.3-0.2c0-0.1,0-0.3,0.1-0.5c0.1,0.2,0.2,0.5,0.3,0.7h1.5
	c0,0-1.1-1.6-1.6-3.2C316.7,24.7,316.7,24,316.5,23.3z M313.8,25.2c0.1,0.7,0.3,1.6,0.7,2.5C314.1,27.1,313.8,26.2,313.8,25.2z
	 M323,19.2c0.2-0.2,0.5-0.4,0.7-0.6C323.7,18.7,323.4,18.9,323,19.2z"/>
<linearGradient id="SVGID_9_" gradientUnits="userSpaceOnUse" x1="163.2112" y1="17.2949" x2="163.2112" y2="28.6063">
	<stop  offset="0" style="stop-color:#C0E568"/>
	<stop  offset="2.466192e-02" style="stop-color:#B6DD5F"/>
	<stop  offset="0.1493" style="stop-color:#87B636"/>
	<stop  offset="0.2597" style="stop-color:#659A19"/>
	<stop  offset="0.3507" style="stop-color:#518907"/>
	<stop  offset="0.411" style="stop-color:#498300"/>
	<stop  offset="0.5213" style="stop-color:#3F7501"/>
	<stop  offset="0.7268" style="stop-color:#265204"/>
	<stop  offset="0.9018" style="stop-color:#0D2F07"/>
</linearGradient>
<path class="st8" d="M26.8,18.2l1.4,1.7c0.2,7-1.4,8.7-1.4,8.7h1.4c1.7-6.7,0-9.5,0-9.5L26.8,18.2z M31.4,28.6h1.2
	c0.5-7.6-1.2-10.7-1.2-10.7C33.3,22.7,31.4,28.6,31.4,28.6z M23.7,17.9c-1.3,3.8-0.5,10.7-0.5,10.7h1.1
	C23.3,24.9,23.7,17.9,23.7,17.9z M34.9,20c4.4-1.1,1.2,8.6,1.2,8.6H37C39.3,18,34.9,20,34.9,20z M43.8,21l1.2,1.2
	c0.2,5.1-1.2,6.3-1.2,6.3H45c1.4-4.9,0-6.9,0-6.9L43.8,21z M48.4,28.6h1c0.4-5.6-1-7.8-1-7.8C50,24.3,48.4,28.6,48.4,28.6z
	 M40.6,19.4c-1.1,3.2-0.4,9.2-0.4,9.2h0.9C40.2,25.4,40.6,19.4,40.6,19.4z M107,18.2l1.4,1.7c0.2,7-1.4,8.7-1.4,8.7h1.4
	c1.7-6.7,0-9.5,0-9.5L107,18.2z M111.7,28.6h1.2c0.5-7.6-1.2-10.7-1.2-10.7C113.6,22.7,111.7,28.6,111.7,28.6z M69,18.2l1.4,1.7
	c0.2,7-1.4,8.7-1.4,8.7h1.4c1.7-6.7,0-9.5,0-9.5L69,18.2z M73.7,28.6h1.2c0.5-7.6-1.2-10.7-1.2-10.7C75.6,22.7,73.7,28.6,73.7,28.6z
	 M52.6,28.6h1c0.5-7.6-1-10.7-1-10.7C54.3,22.7,52.6,28.6,52.6,28.6z M115.2,20c4.4-1.1,1.2,8.6,1.2,8.6h0.9
	C119.6,18,115.2,20,115.2,20z M119.9,21l1.2,1.2c0.2,5.1-1.2,6.3-1.2,6.3h1.2c1.4-4.9,0-6.9,0-6.9L119.9,21z M128.7,28.6h1
	c0.4-5.6-1-7.8-1-7.8C130.3,24.3,128.7,28.6,128.7,28.6z M125.1,19.4c-1.1,3.2-0.4,9.2-0.4,9.2h0.9
	C124.7,25.4,125.1,19.4,125.1,19.4z M77.1,20c4.4-1.1,1.2,8.6,1.2,8.6h0.9C81.6,18,77.1,20,77.1,20z M81.8,21l1.2,1.2
	c0.2,5.1-1.2,6.3-1.2,6.3H83c1.4-4.9,0-6.9,0-6.9L81.8,21z M90.7,28.6h1c0.4-5.6-1-7.8-1-7.8C92.3,24.3,90.7,28.6,90.7,28.6z
	 M87.1,19.4c-1.1,3.2-0.4,9.2-0.4,9.2h0.9C86.7,25.4,87.1,19.4,87.1,19.4z M104,17.3c-1.3,4-0.6,11.3-0.6,11.3h1.1
	C103.5,24.7,104,17.3,104,17.3z M99.1,28.6h1.2c0,0-2-5.3,0-9.5C100.3,19.1,98.5,21.8,99.1,28.6z M94.7,28.6H96
	c0.6-7.6-1.4-10.7-1.4-10.7C96.9,22.7,94.7,28.6,94.7,28.6z M56,20c4.4-1.1,1.2,8.6,1.2,8.6h0.9C60.4,18,56,20,56,20z M60.7,21
	l1.2,1.2c0.2,5.1-1.2,6.3-1.2,6.3h1.2c1.4-4.9,0-6.9,0-6.9L60.7,21z M65.9,19.4c-1.1,3.2-0.4,9.2-0.4,9.2h0.9
	C65.6,25.4,65.9,19.4,65.9,19.4z M136.6,18.2l1.4,1.7c0.2,7-1.4,8.7-1.4,8.7h1.4c1.7-6.7,0-9.5,0-9.5L136.6,18.2z M141.2,28.6h1.2
	c0.5-7.6-1.2-10.7-1.2-10.7C143.1,22.7,141.2,28.6,141.2,28.6z M144.7,20c4.4-1.1,1.2,8.6,1.2,8.6h0.9C149.1,18,144.7,20,144.7,20z
	 M149.4,21l1.2,1.2c0.2,5.1-1.2,6.3-1.2,6.3h1.2c1.4-4.9,0-6.9,0-6.9L149.4,21z M158.2,28.6h1c0.5-5.6-1-7.8-1-7.8
	C159.9,24.3,158.2,28.6,158.2,28.6z M154.6,19.4c-1.1,3.2-0.5,9.2-0.5,9.2h0.9C154.3,25.4,154.6,19.4,154.6,19.4z M133.5,17.3
	c-1.3,4-0.6,11.3-0.6,11.3h1.1C133.1,24.7,133.5,17.3,133.5,17.3z M302.1,19.9l1.4-1.7l-1.4,0.9c0,0-1.7,2.7,0,9.5h1.4
	C303.4,28.6,301.8,26.9,302.1,19.9z M293.4,28.6h1.2c0,0-1.9-6,0-10.7C294.6,17.9,292.9,21,293.4,28.6z M297.5,28.6h1.1
	c0,0,0.7-7-0.5-10.7C298,17.9,298.5,24.9,297.5,28.6z M289,28.6h0.9c0,0-3.2-9.7,1.2-8.6C291.1,20,286.7,18,289,28.6z M282.2,21
	l-1.2,0.7c0,0-1.4,2,0,6.9h1.2c0,0-1.4-1.2-1.2-6.3L282.2,21z M276.6,28.6h1c0,0-1.6-4.3,0-7.8C277.6,20.8,276.1,23,276.6,28.6z
	 M284.9,28.6h0.9c0,0,0.6-6-0.4-9.2C285.4,19.4,285.7,25.4,284.9,28.6z M214.7,18.2l-1.4,0.9c0,0-1.7,2.7,0,9.5h1.4
	c0,0-1.6-1.7-1.4-8.7L214.7,18.2z M208.9,28.6h1.2c0,0-1.9-6,0-10.7C210.1,17.9,208.4,21,208.9,28.6z M252.8,18.2l-1.4,0.9
	c0,0-1.7,2.7,0,9.5h1.4c0,0-1.6-1.7-1.4-8.7L252.8,18.2z M246.9,28.6h1.2c0,0-1.9-6,0-10.7C248.1,17.9,246.4,21,246.9,28.6z
	 M273.7,18.2l-1.2,0.9c0,0-1.5,2.7,0,9.5h1.2c0,0-1.4-1.7-1.2-8.7L273.7,18.2z M268.1,28.6h1c0,0-1.7-6,0-10.7
	C269.1,17.9,267.7,21,268.1,28.6z M204.5,28.6h0.9c0,0-3.2-9.7,1.2-8.6C206.6,20,202.2,18,204.5,28.6z M197.7,21l-1.2,0.7
	c0,0-1.4,2,0,6.9h1.2c0,0-1.4-1.2-1.2-6.3L197.7,21z M192.1,28.6h1c0,0-1.6-4.3,0-7.8C193.1,20.8,191.7,23,192.1,28.6z M200.5,28.6
	h0.9c0,0,0.6-6-0.4-9.2C200.9,19.4,201.3,25.4,200.5,28.6z M242.5,28.6h0.9c0,0-3.2-9.7,1.2-8.6C244.6,20,240.2,18,242.5,28.6z
	 M235.7,21l-1.2,0.7c0,0-1.4,2,0,6.9h1.2c0,0-1.4-1.2-1.2-6.3L235.7,21z M230.1,28.6h1c0,0-1.6-4.3,0-7.8
	C231.1,20.8,229.7,23,230.1,28.6z M238.5,28.6h0.9c0,0,0.6-6-0.4-9.2C238.9,19.4,239.3,25.4,238.5,28.6z M217.2,28.6h1.1
	c0,0,0.8-7.4-0.6-11.3C217.8,17.3,218.2,24.7,217.2,28.6z M221.5,28.6h1.2c0.6-6.8-1.2-9.5-1.2-9.5
	C223.5,23.3,221.5,28.6,221.5,28.6z M225.7,28.6h1.4c0,0-2.2-5.9,0-10.7C227.1,17.9,225.1,21,225.7,28.6z M263.7,28.6h0.9
	c0,0-3.2-9.7,1.2-8.6C265.7,20,261.3,18,263.7,28.6z M256.8,21l-1.2,0.7c0,0-1.4,2,0,6.9h1.2c0,0-1.4-1.2-1.2-6.3L256.8,21z
	 M259.6,28.6h0.9c0,0,0.6-6-0.4-9.2C260,19.4,260.4,25.4,259.6,28.6z M185.2,18.2l-1.4,0.9c0,0-1.7,2.7,0,9.5h1.4
	c0,0-1.6-1.7-1.4-8.7L185.2,18.2z M179.4,28.6h1.2c0,0-1.9-6,0-10.7C180.5,17.9,178.8,21,179.4,28.6z M175,28.6h0.9
	c0,0-3.2-9.7,1.2-8.6C177,20,172.6,18,175,28.6z M168.1,21l-1.2,0.7c0,0-1.4,2,0,6.9h1.2c0,0-1.4-1.2-1.2-6.3L168.1,21z M162.5,28.6
	h1c0,0-1.6-4.3,0-7.8C163.5,20.8,162.1,23,162.5,28.6z M170.9,28.6h0.9c0,0,0.6-6-0.5-9.2C171.4,19.4,171.7,25.4,170.9,28.6z
	 M187.7,28.6h1.1c0,0,0.8-7.4-0.6-11.3C188.2,17.3,188.7,24.7,187.7,28.6z"/>
</svg>
